<?xml version="1.0" standalone="no"?>
<!DOCTYPE svg PUBLIC "-//W3C//DTD SVG 1.1//EN" "http://www.w3.org/Graphics/SVG/1.1/DTD/svg11.dtd" >
<svg xmlns="http://www.w3.org/2000/svg">
<metadata></metadata>
<defs>
<font id="conduititcstdlight" horiz-adv-x="1044" >
<font-face units-per-em="2048" ascent="1638" descent="-410" />
<missing-glyph horiz-adv-x="356" />
<glyph unicode="&#xfb01;" horiz-adv-x="993" d="M82 713v75q0 21 20 21h56q20 0 20 20v125q0 105 54.5 190.5t148.5 129.5q74 33 108 33q19 0 19 -21v-78q0 -17 -16 -20q-81 -19 -129 -77.5t-48 -135.5v-146q0 -20 21 -20h151q21 0 21 -21v-75q0 -21 -21 -21h-151q-21 0 -21 -20v-652q0 -20 -20 -20h-96q-21 0 -21 20 v652q0 20 -20 20h-56q-20 0 -20 21zM690 1221q0 35 26.5 62.5t61.5 27.5q38 0 65 -26t27 -64q0 -37 -27.5 -65t-64.5 -28q-38 0 -63 27t-25 66zM711 20v865q0 20 20 20h98q21 0 21 -20v-865q0 -20 -21 -20h-98q-20 0 -20 20z" />
<glyph unicode="&#xfb02;" horiz-adv-x="999" d="M82 713v75q0 21 20 21h56q20 0 20 20v105q0 148 103 251t251 103h304q20 0 20 -20v-1248q0 -20 -20 -20h-99q-20 0 -20 20v1131q0 20 -21 20h-164q-91 0 -154 -63t-63 -154v-125q0 -20 21 -20h151q21 0 21 -21v-75q0 -21 -21 -21h-151q-21 0 -21 -20v-652q0 -20 -20 -20 h-96q-21 0 -21 20v652q0 20 -20 20h-56q-20 0 -20 21z" />
<glyph unicode="&#xfb03;" horiz-adv-x="1517" d="M82 713v75q0 21 20 21h56q20 0 20 20v125q0 149 103 253t251 104q140 0 228 -78q5 -4 15 -14.5t17 -15.5t11 -5q5 0 12.5 6t17 15.5t15.5 13.5q39 30 98 52t84 22q17 0 17 -21v-80q0 -17 -17 -20q-80 -17 -127 -75t-47 -136v-146q0 -20 21 -20h149q21 0 21 -21v-75 q0 -21 -21 -21h-149q-21 0 -21 -20v-652q0 -20 -20 -20h-99q-20 0 -20 20v652q0 20 -21 20h-360q-21 0 -21 -20v-652q0 -20 -20 -20h-96q-21 0 -21 20v652q0 20 -20 20h-56q-20 0 -20 21zM315 829q0 -20 21 -20h360q21 0 21 20v125q0 30 4 53t8 35t4 15q0 16 -33 53 q-70 82 -168 82q-91 0 -154 -62.5t-63 -154.5v-146zM1229 1221q0 38 26 64t64 26t65 -26t27 -64q0 -37 -27.5 -65t-64.5 -28q-38 0 -64 27t-26 66zM1251 20v865q0 20 21 20h96q21 0 21 -20v-865q0 -20 -21 -20h-96q-21 0 -21 20z" />
<glyph unicode="&#xfb04;" horiz-adv-x="1538" d="M82 713v75q0 21 20 21h56q20 0 20 20v125q0 149 103 253t251 104q98 0 155 -28.5t114 -88.5q8 -8 12 -8q2 0 14 8q105 94 246 94h301q21 0 21 -20v-1248q0 -20 -21 -20h-96q-21 0 -21 20v1131q0 20 -20 20h-164q-91 0 -154 -63t-63 -154v-125q0 -20 21 -20h149 q21 0 21 -21v-75q0 -21 -21 -21h-149q-21 0 -21 -20v-652q0 -20 -20 -20h-99q-20 0 -20 20v652q0 20 -21 20h-360q-21 0 -21 -20v-652q0 -20 -20 -20h-96q-21 0 -21 20v652q0 20 -20 20h-56q-20 0 -20 21zM315 829q0 -20 21 -20h360q21 0 21 20v125q0 30 4 53t8 35t4 15 q0 16 -33 53q-70 82 -168 82q-91 0 -154 -62.5t-63 -154.5v-146z" />
<glyph horiz-adv-x="2048" />
<glyph horiz-adv-x="2048" />
<glyph unicode="&#xd;" horiz-adv-x="2048" />
<glyph unicode=" "  horiz-adv-x="356" />
<glyph unicode="&#x09;" horiz-adv-x="356" />
<glyph unicode="&#xa0;" horiz-adv-x="356" />
<glyph unicode="!" horiz-adv-x="595" d="M199 70q0 40 30 70t70 30q43 0 72.5 -28.5t29.5 -71.5t-29.5 -72t-72.5 -29q-40 0 -70 30.5t-30 70.5zM229 748v520q0 20 21 20h98q21 0 21 -20v-518l-43 -349q-3 -18 -21 -18h-10q-18 0 -21 18z" />
<glyph unicode="&#x22;" horiz-adv-x="577" d="M84 1276q0 22 20 22h113q21 0 21 -22l-39 -309q-3 -19 -21 -19h-31q-17 0 -20 19zM342 1276q0 22 20 22h111q21 0 21 -22l-39 -309q-3 -19 -21 -19h-28q-18 0 -21 19z" />
<glyph unicode="#" horiz-adv-x="1153" d="M90 395l23 84q6 21 26 21h117q17 0 20 16l74 256q0 16 -22 16h-123q-17 0 -17 13l23 84q6 20 27 20h135q17 0 20 17l103 354q3 14 20 14h68q22 0 22 -18l-98 -348q0 -19 22 -19h250q18 0 21 17l102 354q3 14 21 14h67q23 0 23 -18l-99 -348q0 -8 6.5 -13.5t16.5 -5.5h109 q16 0 16 -12l-23 -84q-6 -21 -26 -21h-121q-19 0 -21 -12l-71 -258q0 -18 22 -18h127q17 0 17 -13l-23 -84q-6 -20 -26 -20h-142q-18 0 -20 -12l-101 -357q-3 -14 -20 -14h-68q-22 0 -22 18l98 349q0 16 -22 16h-250q-19 0 -21 -12l-102 -357q-3 -14 -21 -14h-67 q-23 0 -23 18l96 349q0 16 -22 16h-105q-16 0 -16 12zM393 518q0 -18 23 -18h250q17 0 20 16l72 256q0 16 -23 16h-250q-18 0 -20 -12z" />
<glyph unicode="$" d="M152 158q0 12 12 18l78 39q2 1 8 3.5t8 2.5q9 0 16 -10q36 -55 88 -85t105 -30q18 0 18 21v467q0 12 -12 18q-71 33 -117 60.5t-93.5 71.5t-71 104t-23.5 137q0 132 78.5 221t222.5 113q16 3 16 20v68q0 20 21 20h55q21 0 21 -20v-66q0 -17 16 -20q149 -18 233 -113 q43 -49 43 -63q0 -12 -14 -19l-78 -39q-9 -6 -18 -6t-14 8q-46 61 -105 90q-30 17 -47 17q-16 0 -16 -23v-430q0 -12 12 -18q58 -26 97.5 -47.5t85.5 -57t73.5 -74.5t46 -96t18.5 -125q0 -134 -84.5 -223.5t-232.5 -109.5q-16 -3 -16 -21v-67q0 -21 -21 -21h-55 q-21 0 -21 21v65q0 21 -18 21q-182 0 -274 110q-41 51 -41 68zM305 975q0 -95 109 -170q46 -29 55 -29q16 0 16 23v360q0 23 -18 23q-9 0 -51 -21q-54 -30 -82.5 -79t-28.5 -107zM582 127q0 -23 14 -23q22 0 55 19q58 28 91.5 79t33.5 113q0 61 -29.5 106t-89.5 85 q-49 33 -59 33q-16 0 -16 -23v-389z" />
<glyph unicode="%" horiz-adv-x="1003" d="M88 911v205q0 77 50 125.5t134 48.5t134.5 -48.5t50.5 -125.5v-205q0 -77 -50.5 -125.5t-134.5 -48.5t-134 48.5t-50 125.5zM188 16l539 1262q6 12 18 12h50q22 0 22 -16q-358 -843 -538 -1262q-6 -12 -19 -12h-49q-23 0 -23 16zM190 911q0 -32 25 -57t57 -25t57 25 t25 57v205q0 32 -25 57t-57 25t-57 -25t-25 -57v-205zM549 174v205q0 77 50 125.5t134 48.5t134.5 -48.5t50.5 -125.5v-205q0 -77 -50.5 -125.5t-134.5 -48.5t-134 48.5t-50 125.5zM651 174q0 -32 25 -57t57 -25t57 25t25 57v205q0 32 -25 57t-57 25t-57 -25t-25 -57v-205z " />
<glyph unicode="&#x26;" horiz-adv-x="1280" d="M133 950q0 165 96.5 263t262.5 98q163 0 259.5 -97t96.5 -260v-43q0 -69 -53.5 -142t-161.5 -112q-17 -6 -17 -18q0 -10 11 -18q47 -32 82.5 -65.5t111.5 -113.5q10 -10 19 -10q10 0 16 19q77 262 342 262h14q21 0 21 -21v-96q0 -21 -21 -21h-30q-157 0 -219 -217 l-11 -36q-5 -15 9 -29q133 -133 258 -170q14 -3 14 -21v-100q0 -20 -19 -20h-4q-171 24 -313 163q-7 7 -14 7q-8 0 -15 -11q-53 -80 -126.5 -120.5t-186.5 -40.5h-63q-163 0 -260 95t-97 257v53q0 66 44.5 138.5t117.5 105.5q14 6 14 16q0 11 -10 19q-88 71 -128 135.5 t-40 150.5zM274 315q0 -90 63.5 -154.5t154.5 -64.5h63q54 0 107.5 30.5t89.5 84.5q6 8 16 27t10 26t-28 41q-101 122 -172 178q-21 16 -119 78q-37 23 -43 23q-10 0 -49 -29q-93 -70 -93 -176v-64zM274 975q0 -76 48 -135.5t139 -122.5q11 -8 24 -8q29 0 66 15t73.5 42 t61.5 71.5t25 96.5v41q0 91 -64.5 154t-154.5 63q-92 0 -155 -62.5t-63 -154.5z" />
<glyph unicode="'" horiz-adv-x="321" d="M84 1276q0 22 20 22h113q21 0 21 -22l-39 -309q-3 -19 -21 -19h-31q-17 0 -20 19z" />
<glyph unicode="(" horiz-adv-x="792" d="M266 -25v1172q0 110 49 192t140 125q79 35 123 35q18 0 18 -20v-80q0 -18 -16 -21q-80 -17 -127 -75t-47 -136v-1214q0 -78 46.5 -136.5t127.5 -76.5q16 -3 16 -21v-79q0 -21 -18 -21q-51 0 -127 37q-88 44 -136.5 127.5t-48.5 191.5z" />
<glyph unicode=")" horiz-adv-x="792" d="M199 -281q0 18 16 21q81 18 127.5 76.5t46.5 136.5v1214q0 78 -47 136t-127 75q-16 3 -16 21v80q0 20 18 20q44 0 123 -35q91 -43 139.5 -125t48.5 -192v-1172q0 -109 -48 -192t-136 -127q-76 -37 -127 -37q-18 0 -18 21v79z" />
<glyph unicode="*" horiz-adv-x="786" d="M70 956q0 11 14 17l211 90q16 6 16 18q0 13 -16 19l-211 96q-14 6 -14 16q0 5 4 13l39 65q7 13 16 13q3 0 14 -7l183 -137q9 -6 16 -6q16 0 16 21l-24 237q0 19 20 19h78q21 0 21 -19l-27 -237q0 -21 16 -21q8 0 17 6l192 137q7 7 15 7q10 0 16 -13l39 -65q4 -8 4 -13 q0 -10 -14 -16l-219 -96q-15 -6 -15 -19q0 -12 15 -18l219 -92q14 -6 14 -17q0 -4 -4 -12l-39 -65q-6 -13 -16 -13q-9 0 -15 6l-192 134q-9 6 -17 6q-16 0 -16 -21l29 -241q0 -19 -21 -19h-80q-20 0 -20 19l28 241q0 21 -16 21q-7 0 -16 -6l-187 -134q-9 -6 -14 -6 q-9 0 -16 13l-39 67q-4 8 -4 12z" />
<glyph unicode="+" d="M92 457v55q0 20 21 20h344q20 0 20 21v342q0 20 21 20h53q20 0 20 -20v-342q0 -21 21 -21h342q20 0 20 -20v-55q0 -21 -20 -21h-342q-21 0 -21 -20v-342q0 -21 -20 -21h-53q-21 0 -21 21v342q0 20 -20 20h-344q-21 0 -21 21z" />
<glyph unicode="," horiz-adv-x="428" d="M96 -219q0 6 6 12q40 34 61 82t21 129q0 21 -20 21h-29q-20 0 -20 20v121q0 20 20 20h160q20 0 20 -20v-115q0 -199 -129 -299q-35 -28 -49 -28q-9 0 -16 10l-21 33q-4 8 -4 14z" />
<glyph unicode="-" horiz-adv-x="534" d="M102 403v99q0 20 21 20h291q20 0 20 -20v-99q0 -20 -20 -20h-291q-21 0 -21 20z" />
<glyph unicode="." horiz-adv-x="428" d="M115 70q0 40 29 70t69 30q43 0 72.5 -28.5t29.5 -71.5t-29.5 -72t-72.5 -29q-39 0 -68.5 30.5t-29.5 70.5z" />
<glyph unicode="/" horiz-adv-x="624" d="M-12 16q0 4 5.5 17t16 36.5t17.5 39.5l499 1169q6 12 19 12h69q21 0 21 -16q0 -9 -41 -105l-496 -1157q-6 -12 -18 -12h-70q-22 0 -22 16z" />
<glyph unicode="0" d="M133 315v660q0 150 97 243t259 93h64q162 0 260 -93t98 -243v-660q0 -150 -98 -242.5t-260 -92.5h-64q-162 0 -259 92.5t-97 242.5zM272 315q0 -90 63 -154.5t154 -64.5h64q89 0 154 65t65 154v660q0 91 -64.5 154t-154.5 63h-64q-92 0 -154.5 -62.5t-62.5 -154.5v-660z " />
<glyph unicode="1" d="M238 20v76q0 21 20 21h215q21 0 21 20v867q0 22 -17 22q-10 0 -18 -8l-135 -135q-9 -9 -15 -9q-8 0 -14 9l-51 57q-6 6 -6 14q0 9 6 15l313 313q6 6 14 6h39q21 0 21 -20v-1131q0 -20 20 -20h215q21 0 21 -21v-76q0 -20 -21 -20h-608q-20 0 -20 20z" />
<glyph unicode="2" d="M145 1135q0 16 39 65q89 111 275 111h82q162 0 260 -93t98 -243q0 -65 -18.5 -121t-46 -95t-71.5 -77t-81.5 -62t-88.5 -55q-16 -9 -24 -14q-50 -30 -82.5 -51.5t-70 -54t-59 -63t-36 -72.5t-14.5 -89v-84q0 -20 21 -20h532q21 0 21 -21v-76q0 -20 -21 -20h-672 q-20 0 -20 20v201q0 69 18.5 129.5t45 103t70.5 84.5t80.5 67.5t90.5 58.5q137 84 180 119q106 89 107 192q0 91 -64.5 154t-154.5 63h-82q-53 0 -104.5 -29.5t-86.5 -81.5q-7 -10 -16 -10t-21 8l-73 37q-13 6 -13 19z" />
<glyph unicode="3" d="M141 1133q0 7 14 29t29 40q91 109 275 109h63q163 0 261 -97t98 -260v-32q0 -90 -61 -160.5t-134 -91.5v-8q66 -21 130.5 -96t64.5 -171v-63q0 -162 -97.5 -257t-261.5 -95h-63q-183 0 -273 108q-43 50 -43 70q0 12 13 18l77 39q9 6 17 6q9 0 16 -10q36 -55 87 -85 t106 -30h63q89 0 154 65t65 154v74q0 89 -65 153t-154 64h-143q-21 0 -21 21v75q0 21 21 21h143q92 0 155.5 64.5t63.5 156.5v31q0 91 -64.5 154t-154.5 63h-63q-54 0 -105.5 -29.5t-87.5 -83.5q-7 -10 -16 -10q-10 0 -19 6l-77 41q-13 6 -13 17z" />
<glyph unicode="4" d="M72 328l4 118l549 834q8 8 16 8h123q20 0 20 -20v-822q0 -20 21 -20h151q21 0 21 -20v-76q0 -21 -21 -21h-151q-21 0 -21 -20v-269q0 -20 -20 -20h-96q-21 0 -21 20v269q0 20 -20 20h-535q-20 0 -20 19zM203 442q0 -16 22 -16h402q20 0 20 20v605q0 10 -5 17t-13 7 q-10 0 -19 -12l-401 -604q-6 -9 -6 -17z" />
<glyph unicode="5" d="M176 158q0 10 12 16l74 39q16 8 23 8q9 0 16 -10q36 -55 88 -85t105 -30h63q89 0 154 65t65 154v74q0 89 -65 153t-154 64h-313q-21 0 -21 21v641q0 20 21 20h628q21 0 21 -20v-76q0 -21 -21 -21h-491q-21 0 -21 -20v-408q0 -20 21 -20h176q164 0 261 -94t97 -256v-41 q0 -162 -97.5 -257t-260.5 -95h-63q-170 0 -261 94q-21 22 -39 48.5t-18 35.5z" />
<glyph unicode="6" d="M154 315v660q0 151 96.5 243.5t257.5 92.5h61q176 0 271 -105q49 -56 49 -71q0 -11 -15 -19l-69 -35q-20 -10 -25 -10q-9 0 -16 10q-75 111 -195 111h-61q-91 0 -154 -62.5t-63 -154.5v-342q0 -23 18 -23q11 0 19 11q91 114 202 114h62q142 0 239 -94t97 -240v-86 q0 -150 -98.5 -242.5t-260.5 -92.5h-61q-162 0 -258 92.5t-96 242.5zM291 315q0 -89 64 -154t153 -65h61q89 0 154 65t65 154v86q0 89 -65 153t-154 64h-61q-91 0 -154 -63t-63 -154v-86z" />
<glyph unicode="7" d="M172 1192v76q0 20 21 20h673q21 0 21 -20v-199q0 -54 -11 -103t-25 -85t-43.5 -74.5t-49 -60t-61 -53.5t-59.5 -44.5t-63 -42.5q-53 -36 -87.5 -63t-68 -63t-49.5 -77t-16 -88v-295q0 -20 -20 -20h-98q-21 0 -21 20v295q0 78 20.5 141.5t62 112.5t79 80t96.5 70 q122 82 163 119q112 101 112 231v82q0 20 -21 20h-534q-21 0 -21 21z" />
<glyph unicode="8" d="M135 332v53q0 93 58 162.5t143 99.5v10q-30 8 -63 28.5t-65 51t-52.5 77t-20.5 97.5v43q0 163 97 260t260 97h63q163 0 260.5 -97t97.5 -260v-43q0 -90 -61 -160.5t-133 -91.5v-8q66 -21 130 -95.5t64 -170.5v-53q0 -162 -97.5 -257t-260.5 -95h-63q-163 0 -260 95 t-97 257zM274 315q0 -90 63.5 -154.5t154.5 -64.5h63q89 0 154 65t65 154v64q0 89 -65 153t-154 64h-63q-92 0 -155 -63t-63 -154v-64zM274 934q0 -93 63 -157t155 -64h63q92 0 155.5 64.5t63.5 156.5v41q0 91 -64.5 154t-154.5 63h-63q-92 0 -155 -62.5t-63 -154.5v-41z " />
<glyph unicode="9" d="M117 815v160q0 151 96.5 243.5t257.5 92.5h61q162 0 260.5 -93t98.5 -243v-660q0 -150 -98.5 -242.5t-260.5 -92.5h-61q-185 0 -276 112q-39 45 -39 66q0 12 12 18l78 39q9 6 18 6q10 0 17 -10q70 -115 190 -115h61q89 0 154.5 65t65.5 154v271q0 22 -19 22 q-11 0 -18 -10q-49 -63 -103.5 -91t-99.5 -28h-61q-142 0 -238 95t-96 241zM254 815q0 -89 64 -154t153 -65h61q89 0 154.5 65t65.5 154v160q0 91 -65 154t-155 63h-61q-91 0 -154 -62.5t-63 -154.5v-160z" />
<glyph unicode=":" horiz-adv-x="428" d="M115 70q0 40 29 70t69 30q43 0 72.5 -28.5t29.5 -71.5t-29.5 -72t-72.5 -29q-39 0 -68.5 30.5t-29.5 70.5zM115 645q0 40 29 70t69 30q43 0 72.5 -28.5t29.5 -71.5q0 -41 -30.5 -71.5t-71.5 -30.5q-39 0 -68.5 31t-29.5 71z" />
<glyph unicode=";" horiz-adv-x="428" d="M96 -219q0 6 6 12q40 34 61 82t21 129q0 21 -20 21h-29q-20 0 -20 20v121q0 20 20 20h160q20 0 20 -20v-115q0 -199 -129 -299q-35 -28 -49 -28q-9 0 -16 10l-21 33q-4 8 -4 14zM115 645q0 40 29 70t69 30q43 0 72.5 -28.5t29.5 -71.5q0 -41 -30.5 -71.5t-71.5 -30.5 q-39 0 -68.5 31t-29.5 71z" />
<glyph unicode="&#x3c;" d="M137 436v105q0 11 10 18l641 371q8 4 13 4q10 0 16 -12l27 -43q4 -8 4 -13q0 -10 -12 -16l-590 -340q-15 -11 -15 -18q0 -8 15 -19l590 -342q10 -5 10 -16t-4 -15l-29 -43q-7 -10 -16 -10q-3 0 -11 4l-639 367q-10 7 -10 18z" />
<glyph unicode="=" d="M92 266v53q0 21 21 21h821q20 0 20 -21v-53q0 -20 -20 -20h-821q-21 0 -21 20zM92 649v53q0 21 21 21h821q20 0 20 -21v-53q0 -20 -20 -20h-821q-21 0 -21 20z" />
<glyph unicode="&#x3e;" d="M201 115q0 10 12 16l588 342q14 11 14 19t-14 18l-588 340q-12 6 -12 16q0 5 4 13l26 43q6 12 17 12q4 0 12 -4l639 -373q10 -7 10 -18v-101q0 -11 -10 -18l-639 -369q-8 -4 -12 -4q-11 0 -17 12l-26 43q-4 8 -4 13z" />
<glyph unicode="?" d="M147 1133q0 6 14.5 28.5t31.5 42.5q93 107 272 107h82q162 0 259 -93t97 -243q0 -76 -18 -131t-58.5 -92.5t-66.5 -53.5t-82 -43q-11 -5 -16 -8q-86 -41 -127 -82t-41 -119q0 -7 1 -23t1 -22q0 -18 -21 -18h-98q-21 0 -21 18q-2 35 -2 76q0 26 4 49.5t10 42t17.5 36.5 t20.5 30.5t26.5 27t28 22.5t32 19.5t32 17t33.5 17t32 15.5q42 21 68.5 38t54 43t40.5 61t13 79q0 91 -64.5 154t-154.5 63h-82q-53 0 -105 -29.5t-88 -83.5q-7 -10 -16 -10q-6 0 -14 4l-82 43q-13 6 -13 17zM358 70q0 40 30.5 70t70.5 30q43 0 72.5 -28.5t29.5 -71.5 t-29.5 -72t-72.5 -29q-40 0 -70.5 30.5t-30.5 70.5z" />
<glyph unicode="@" horiz-adv-x="1441" d="M174 352v586q0 157 102 254.5t271 97.5h364q169 0 270 -97.5t101 -254.5v-434q0 -79 -52 -129.5t-138 -50.5h-25q-95 0 -149 61q-15 18 -35 2q-30 -27 -76 -45t-80 -18q-117 0 -187.5 67t-70.5 176v168q0 108 70.5 174t187.5 66q57 0 123 -41q12 -8 21.5 -4.5t9.5 18.5v8 q0 19 20 19h64q20 0 20 -21v-440q0 -37 23.5 -60.5t60.5 -23.5h23q34 0 59 25t25 59v424q0 110 -72.5 178t-192.5 68h-364q-121 0 -193.5 -68t-72.5 -178v-586q0 -110 72.5 -178t193.5 -68h532q21 0 21 -20v-66q0 -20 -21 -20h-532q-169 0 -271 97.5t-102 254.5zM575 582 q0 -63 44 -107.5t108 -44.5q62 0 108 45t46 107v137q0 63 -45.5 106t-108.5 43q-62 0 -107 -44t-45 -105v-137z" />
<glyph unicode="A" horiz-adv-x="917" d="M18 16q0 7 15 52l366 1206q3 14 21 14h78q17 0 20 -14l363 -1194q18 -56 18 -64q0 -16 -22 -16h-105q-17 0 -20 14l-80 283q-2 12 -21 12h-385q-18 0 -20 -12l-80 -283q-3 -14 -21 -14h-104q-23 0 -23 16zM287 444q0 -18 22 -18h295q23 0 23 18l-140 535q-1 5 -10.5 39 t-11.5 41h-8q-11 -44 -23 -80z" />
<glyph unicode="B" horiz-adv-x="1067" d="M168 20v1248q0 20 20 20h398q163 0 260.5 -96t97.5 -258v-23q0 -62 -44 -134t-107 -103q-17 -10 -17 -21q0 -10 12 -16q63 -30 109.5 -99t46.5 -153v-31q0 -162 -97.5 -258t-260.5 -96h-398q-20 0 -20 20zM305 137q0 -20 21 -20h260q92 0 156.5 63.5t64.5 155.5v43 q0 90 -64.5 153.5t-156.5 63.5h-260q-21 0 -21 -21v-438zM305 733q0 -20 21 -20h260q92 0 156.5 64.5t64.5 156.5v20q0 90 -64.5 153.5t-156.5 63.5h-260q-21 0 -21 -20v-418z" />
<glyph unicode="C" horiz-adv-x="950" d="M135 315v660q0 150 97.5 243t259.5 93h63q175 0 274 -109q45 -52 45 -67q0 -12 -14 -19l-78 -39q-9 -6 -18 -6t-14 8q-38 52 -91 82.5t-104 30.5h-63q-92 0 -155 -62.5t-63 -154.5v-660q0 -90 63.5 -154.5t154.5 -64.5h63q53 0 105.5 31.5t89.5 85.5q5 8 14 8t18 -6 l78 -39q14 -7 14 -18q0 -6 -14.5 -28.5t-32.5 -41.5q-94 -108 -272 -108h-63q-162 0 -259.5 92.5t-97.5 242.5z" />
<glyph unicode="D" horiz-adv-x="1077" d="M168 20v1248q0 20 20 20h398q163 0 260.5 -96t97.5 -258v-576q0 -164 -97.5 -261t-260.5 -97h-398q-20 0 -20 20zM305 137q0 -20 21 -20h260q92 0 156.5 63.5t64.5 155.5v618q0 90 -64.5 153.5t-156.5 63.5h-260q-21 0 -21 -20v-1014z" />
<glyph unicode="E" horiz-adv-x="980" d="M168 20v1248q0 20 20 20h672q21 0 21 -20v-76q0 -21 -21 -21h-534q-21 0 -21 -20v-418q0 -20 21 -20h438q20 0 20 -21v-76q0 -20 -20 -20h-438q-21 0 -21 -21v-438q0 -20 21 -20h534q21 0 21 -21v-76q0 -20 -21 -20h-672q-20 0 -20 20z" />
<glyph unicode="F" horiz-adv-x="927" d="M168 20v1248q0 20 20 20h672q21 0 21 -20v-76q0 -21 -21 -21h-534q-21 0 -21 -20v-418q0 -20 21 -20h438q20 0 20 -21v-76q0 -20 -20 -20h-438q-21 0 -21 -21v-555q0 -20 -20 -20h-97q-20 0 -20 20z" />
<glyph unicode="G" d="M135 315v660q0 150 97.5 243t259.5 93h102q182 0 274 -111q43 -54 43 -65q0 -12 -14 -19l-74 -37q-16 -8 -22 -8q-10 0 -15 8q-36 54 -87.5 83.5t-104.5 29.5h-102q-92 0 -155 -62.5t-63 -154.5v-660q0 -90 63.5 -154.5t154.5 -64.5h63q89 0 154 65t65 154v164 q0 21 -20 21h-215q-21 0 -21 20v78q0 20 21 20h354q20 0 20 -20v-283q0 -150 -98 -242.5t-260 -92.5h-63q-162 0 -259.5 92.5t-97.5 242.5z" />
<glyph unicode="H" horiz-adv-x="1140" d="M168 20v1248q0 20 20 20h97q20 0 20 -20v-535q0 -20 21 -20h491q21 0 21 20v535q0 20 20 20h98q21 0 21 -20v-1248q0 -20 -21 -20h-98q-20 0 -20 20v555q0 21 -21 21h-491q-21 0 -21 -21v-555q0 -20 -20 -20h-97q-20 0 -20 20z" />
<glyph unicode="I" horiz-adv-x="471" d="M168 20v1248q0 20 20 20h97q20 0 20 -20v-1248q0 -20 -20 -20h-97q-20 0 -20 20z" />
<glyph unicode="J" horiz-adv-x="854" d="M43 162q0 9 14 16l74 37q16 8 21 8q9 0 16 -10q35 -54 88 -85.5t106 -31.5q89 0 154.5 65t65.5 154v953q0 20 20 20h98q21 0 21 -20v-932q0 -147 -105 -251.5t-254 -104.5q-73 0 -145.5 34t-128.5 90q-45 41 -45 58z" />
<glyph unicode="K" horiz-adv-x="1077" d="M168 20v1248q0 20 20 20h97q20 0 20 -20v-615q0 -10 5.5 -17t13.5 -7q9 0 18 12l487 639q8 8 17 8h108q23 0 23 -16q0 -8 -6 -17l-379 -467q-10 -10 -10 -18q0 -7 10 -22l430 -697q16 -28 16 -35q0 -16 -22 -16h-123q-12 0 -19 10l-374 613q-11 14 -19 14q-6 0 -16 -10 l-160 -201v-406q0 -20 -20 -20h-97q-20 0 -20 20z" />
<glyph unicode="L" horiz-adv-x="927" d="M168 20v1248q0 20 20 20h97q20 0 20 -20v-1131q0 -20 21 -20h534q21 0 21 -21v-76q0 -20 -21 -20h-672q-20 0 -20 20z" />
<glyph unicode="M" horiz-adv-x="1335" d="M168 20v1248q0 20 20 20h95q12 0 18 -12l336 -778q20 -48 29 -82h6q6 24 30 80l332 780q6 12 19 12h96q20 0 20 -20v-1248q0 -20 -20 -20h-96q-21 0 -21 20v488q0 106 7 262t12 213l-9 2q-2 -4 -14 -39t-23.5 -67t-15.5 -39l-282 -635q-6 -12 -19 -12h-41q-12 0 -18 12 l-281 635q-4 8 -15.5 40t-23.5 66t-14 39l-8 -2q4 -54 11 -211t7 -264v-488q0 -20 -20 -20h-97q-20 0 -20 20z" />
<glyph unicode="N" horiz-adv-x="1140" d="M168 20v1248q0 20 20 20h95q11 0 18 -10l498 -911q25 -41 37 -74l8 2q-6 73 -6 475v498q0 20 20 20h98q21 0 21 -20v-1248q0 -20 -21 -20h-96q-11 0 -18 10l-498 901q-27 47 -37 74l-8 -2q6 -73 6 -475v-488q0 -20 -20 -20h-97q-20 0 -20 20z" />
<glyph unicode="O" d="M135 315v660q0 150 97.5 243t259.5 93h63q162 0 260 -93t98 -243v-660q0 -150 -98 -242.5t-260 -92.5h-63q-162 0 -259.5 92.5t-97.5 242.5zM274 315q0 -90 63.5 -154.5t154.5 -64.5h63q89 0 154 65t65 154v660q0 91 -64.5 154t-154.5 63h-63q-92 0 -155 -62.5 t-63 -154.5v-660z" />
<glyph unicode="P" horiz-adv-x="991" d="M168 20v1248q0 20 20 20h398q163 0 260.5 -96.5t97.5 -257.5q0 -145 -99 -241.5t-259 -96.5h-260q-21 0 -21 -21v-555q0 -20 -20 -20h-97q-20 0 -20 20zM305 733q0 -20 21 -20h260q92 0 156.5 64.5t64.5 156.5v20q0 90 -64.5 153.5t-156.5 63.5h-260q-21 0 -21 -20v-418z " />
<glyph unicode="Q" d="M135 315v660q0 150 97.5 243t259.5 93h63q162 0 260 -93t98 -243v-660q0 -132 -83.5 -221.5t-231.5 -111.5q-16 -3 -16 -21v-133q0 -21 -21 -21h-76q-20 0 -20 21v133q0 17 -21 21q-148 21 -228.5 110.5t-80.5 222.5zM274 315q0 -117 105 -182q52 -31 70 -31q16 0 16 21 v100q0 21 20 21h76q21 0 21 -21v-98q0 -19 14 -19q18 0 68 25q110 61 110 184v660q0 91 -64.5 154t-154.5 63h-63q-92 0 -155 -62.5t-63 -154.5v-660z" />
<glyph unicode="R" d="M168 20v1248q0 20 20 20h398q163 0 260.5 -96t97.5 -258v-23q0 -77 -59.5 -158t-134.5 -112q-13 -7 -13 -14q0 -5 8 -25l185 -534q16 -40 16 -52q0 -16 -20 -16h-111q-15 0 -18 14l-197 570q-3 12 -16 12h-258q-21 0 -21 -21v-555q0 -20 -20 -20h-97q-20 0 -20 20z M305 733q0 -20 21 -20h260q92 0 156.5 64.5t64.5 156.5v20q0 90 -64.5 153.5t-156.5 63.5h-260q-21 0 -21 -20v-418z" />
<glyph unicode="S" horiz-adv-x="946" d="M92 158q0 10 12 16l78 41q18 6 19 6q9 0 16 -10q36 -55 88 -85t105 -30h88q92 0 156.5 63.5t64.5 155.5q0 35 -9.5 65.5t-31 56t-43 45t-58.5 40.5t-63.5 34t-71.5 34q-38 17 -54 24.5t-51 25.5t-52 29.5t-46 32.5t-44 39t-34.5 45t-28.5 54t-16 62t-7 73q0 150 97 243 t259 93h33q179 0 274 -109q45 -53 45 -67q0 -12 -14 -19l-70 -35q-20 -10 -26 -10q-10 0 -15 8q-36 54 -88 83.5t-106 29.5h-33q-91 0 -154 -62.5t-63 -154.5q0 -24 5.5 -45t19 -40.5t26 -34.5t38 -32.5t42 -28t51 -27.5t52 -25.5t57.5 -26.5q55 -25 92.5 -45.5t84 -56 t74 -74.5t47 -97t19.5 -127q0 -150 -97.5 -242.5t-260.5 -92.5h-88q-185 0 -277 110q-41 52 -41 68z" />
<glyph unicode="T" horiz-adv-x="811" d="M49 1192v76q0 20 21 20h673q21 0 21 -20v-76q0 -21 -21 -21h-247q-21 0 -21 -20v-1131q0 -20 -20 -20h-97q-20 0 -20 20v1131q0 20 -21 20h-247q-21 0 -21 21z" />
<glyph unicode="U" d="M135 315v953q0 20 21 20h98q20 0 20 -20v-953q0 -90 63.5 -154.5t154.5 -64.5h63q89 0 154 65t65 154v953q0 20 21 20h98q20 0 20 -20v-953q0 -150 -98 -242.5t-260 -92.5h-63q-162 0 -259.5 92.5t-97.5 242.5z" />
<glyph unicode="V" horiz-adv-x="917" d="M18 1272q0 16 23 16h104q18 0 21 -14l272 -961q4 -14 21 -82h10q1 3 9.5 38.5t10.5 43.5l263 961q3 14 20 14h105q22 0 22 -16q0 -10 -18 -64l-365 -1194q-3 -14 -20 -14h-74q-18 0 -21 14l-368 1207q-2 9 -6 21l-6.5 19.5t-2.5 10.5z" />
<glyph unicode="W" horiz-adv-x="1380" d="M35 1272q0 16 20 16h107q17 0 20 -16l172 -877q3 -19 21 -92h10q19 76 23 90l249 885q3 14 21 14h29q17 0 20 -14l244 -887q2 -8 11.5 -48t10.5 -44h11q2 9 10.5 49t9.5 45l174 879q3 16 21 16h106q21 0 21 -16q0 -6 -15 -74l-258 -1182q-3 -16 -20 -16h-74q-18 0 -21 14 l-241 826q-2 7 -11 46.5t-10 43.5h-8q-1 -2 -10.5 -42t-11.5 -48l-246 -826q-3 -14 -21 -14h-73q-18 0 -21 16l-262 1209q-8 28 -8 47z" />
<glyph unicode="X" horiz-adv-x="935" d="M61 16q0 8 27 60l277 545q10 20 10 24q0 7 -10 27l-281 553q-21 37 -21 47q0 16 23 16h113q10 0 18 -12l240 -490q6 -16 18 -16q13 0 19 16l225 490q6 12 18 12h113q22 0 22 -16q0 -5 -24 -53l-275 -545q-10 -25 -10 -27q0 -11 10 -26l279 -555q22 -44 22 -50 q0 -16 -22 -16h-115q-12 0 -18 12l-225 488q-6 16 -19 16q-12 0 -18 -16l-240 -488q-8 -12 -18 -12h-115q-23 0 -23 16z" />
<glyph unicode="Y" horiz-adv-x="917" d="M33 1272q0 16 22 16h117q10 0 18 -12l252 -516q7 -17 19 -17q11 0 18 17l248 516q8 12 18 12h117q23 0 23 -16q0 -10 -41 -84l-316 -592v-576q0 -20 -20 -20h-100q-21 0 -21 20v576l-317 600q-37 68 -37 76z" />
<glyph unicode="Z" horiz-adv-x="897" d="M74 16q0 5 26 68l453 1018q20 50 20 53q0 16 -20 16h-440q-21 0 -21 21v76q0 20 21 20h645q20 0 20 -16q0 -5 -20 -53l-453 -1010q-31 -68 -31 -76q0 -16 21 -16h491q21 0 21 -21v-76q0 -20 -21 -20h-692q-20 0 -20 16z" />
<glyph unicode="[" horiz-adv-x="792" d="M266 -362v1843q0 20 21 20h288q21 0 21 -20v-76q0 -21 -21 -21h-149q-20 0 -20 -20v-1610q0 -20 20 -20h149q21 0 21 -21v-75q0 -21 -21 -21h-288q-21 0 -21 21z" />
<glyph unicode="\" horiz-adv-x="624" d="M-10 1274q0 16 20 16h70q12 0 18 -12l500 -1169q7 -16 17.5 -39.5t16 -36.5t5.5 -17q0 -16 -23 -16h-69q-13 0 -19 12l-495 1157q-41 96 -41 105z" />
<glyph unicode="]" horiz-adv-x="792" d="M199 -287q0 21 20 21h152q20 0 20 20v1610q0 20 -20 20h-152q-20 0 -20 21v76q0 20 20 20h289q20 0 20 -20v-1843q0 -21 -20 -21h-289q-20 0 -20 21v75z" />
<glyph unicode="^" d="M115 639l383 672h49l383 -672h-113l-293 537h-4l-293 -537h-112z" />
<glyph unicode="_" horiz-adv-x="409" d="M-31 -389q0 20 21 20h430q20 0 20 -20v-51q0 -21 -20 -21h-430q-21 0 -21 21v51z" />
<glyph unicode="`" horiz-adv-x="1024" d="M268 1253q0 8 6.5 13.5t16.5 5.5h135q15 0 23 -12l141 -209q6 -9 6 -17q0 -16 -23 -16h-41q-12 0 -22 10l-234 209q-8 8 -8 16z" />
<glyph unicode="a" horiz-adv-x="946" d="M115 240v12q0 106 74 171.5t184 65.5h270q21 0 21 19v84q0 90 -64.5 151.5t-155.5 61.5q-53 0 -104.5 -29.5t-87.5 -83.5q-7 -10 -16 -10q-7 0 -23 8l-74 39q-12 6 -12 16q0 13 39 62q93 115 278 115q163 0 261 -90.5t98 -239.5v-572q0 -20 -21 -20h-75q-21 0 -21 20v89 q0 24 -18 24q-9 0 -19 -10q-46 -54 -100 -88.5t-94 -34.5h-82q-110 0 -184 66.5t-74 173.5zM252 240q0 -50 36 -86.5t85 -36.5h82q66 0 124 53.5t85 124.5v78q0 20 -21 20h-270q-51 0 -86 -35t-35 -86v-32z" />
<glyph unicode="b" horiz-adv-x="970" d="M145 20v1248q0 20 21 20h98q21 0 21 -20v-463q0 -10 5 -16.5t11 -6.5q7 0 18 11q49 60 103 86t100 26q143 0 240.5 -94t97.5 -240v-235q0 -149 -98.5 -242.5t-259.5 -93.5q-45 0 -99.5 27.5t-103.5 89.5q-7 10 -18 10q-8 0 -13.5 -6.5t-5.5 -16.5v-84q0 -20 -20 -20h-76 q-21 0 -21 20zM285 336q0 -89 64 -154t153 -65t154 65t65 154v235q0 89 -65 153t-154 64q-91 0 -154 -63t-63 -154v-235z" />
<glyph unicode="c" horiz-adv-x="870" d="M115 315v277q0 150 96 242t258 92q181 0 274 -107q45 -52 45 -67q0 -12 -14 -19l-74 -37q-16 -8 -22 -8q-9 0 -14 8q-37 52 -89.5 82.5t-105.5 30.5q-91 0 -154 -63t-63 -154v-277q0 -89 64 -154t153 -65q53 0 105.5 31.5t89.5 85.5q5 8 14 8q7 0 27 -10l69 -35 q14 -7 14 -18q0 -13 -45 -68q-92 -110 -274 -110q-162 0 -258 92.5t-96 242.5z" />
<glyph unicode="d" horiz-adv-x="970" d="M115 336v235q0 146 95.5 240t238.5 94q110 0 202 -117q7 -10 19 -10q18 0 18 23v467q0 20 21 20h98q20 0 20 -20v-1248q0 -20 -20 -20h-76q-20 0 -20 20v89q0 22 -19 22q-10 0 -18 -10q-51 -64 -105.5 -92.5t-99.5 -28.5q-161 0 -257.5 93.5t-96.5 242.5zM252 336 q0 -89 64 -154t153 -65t154 65t65 154v235q0 89 -65 153t-154 64q-91 0 -154 -63t-63 -154v-235z" />
<glyph unicode="e" horiz-adv-x="937" d="M115 315v277q0 60 25.5 119t70 107t112.5 78t146 30t147 -30t114 -78t71 -107t26 -119v-125q0 -21 -20 -21h-535q-20 0 -20 -20v-111q0 -89 64 -154t153 -65q53 0 105.5 31.5t89.5 85.5q5 8 14 8q2 0 22 -8l74 -37q14 -7 14 -18q0 -16 -45 -68q-92 -110 -274 -110 q-162 0 -258 92.5t-96 242.5zM252 563q0 -20 20 -20h396q20 0 20 20v29q0 89 -65 153t-154 64q-91 0 -154 -63t-63 -154v-29z" />
<glyph unicode="f" horiz-adv-x="565" d="M82 713v75q0 21 20 21h56q20 0 20 20v125q0 149 103 253t251 104q28 0 64 -4q18 -3 18 -21l-26 -82q-4 -14 -19 -14q-3 0 -16 1t-21 1q-91 0 -154 -62.5t-63 -154.5v-146q0 -20 21 -20h151q21 0 21 -21v-75q0 -21 -21 -21h-151q-21 0 -21 -20v-652q0 -20 -20 -20h-96 q-21 0 -21 20v652q0 20 -20 20h-56q-20 0 -20 21z" />
<glyph unicode="g" horiz-adv-x="937" d="M115 -211q0 104 127 191q10 5 10 16q0 10 -14 33q-27 49 -27 92q0 50 31 104q20 33 20 37q0 9 -29 33q-118 101 -118 256v20q0 146 101.5 240t252.5 94q45 0 99.5 -28t105.5 -91q7 -10 18 -10q8 0 13.5 6.5t5.5 16.5v86q0 20 20 20h76q20 0 20 -20v-334 q0 -146 -103.5 -241t-254.5 -95q-30 0 -66 4q-31 -13 -53 -40t-22 -58q0 -33 20.5 -62t52.5 -36h261q112 0 187 -64t75 -170v-12q0 -109 -75.5 -173.5t-186.5 -64.5h-289q-110 0 -184 65t-74 173v12zM252 -211v-12q0 -53 33.5 -87t87.5 -34h289q54 0 88 34t34 87v12 q0 49 -36 82t-86 33h-289q-52 0 -86.5 -32.5t-34.5 -82.5zM252 551q0 -89 64 -154t153 -65t154 65t65 154v20q0 89 -65 153t-154 64q-91 0 -154 -63t-63 -154v-20z" />
<glyph unicode="h" horiz-adv-x="991" d="M145 20v1248q0 20 21 20h98q21 0 21 -20v-463q0 -10 5 -16.5t11 -6.5q7 0 18 11q49 60 103 86t100 26q144 0 241 -94t97 -240v-551q0 -20 -20 -20h-99q-20 0 -20 20v551q0 89 -65 153t-154 64q-91 0 -154 -63t-63 -154v-551q0 -20 -21 -20h-98q-21 0 -21 20z" />
<glyph unicode="i" horiz-adv-x="428" d="M125 1221q0 35 26.5 62.5t61.5 27.5q38 0 65 -26t27 -64q0 -37 -27.5 -65t-64.5 -28q-38 0 -63 27t-25 66zM145 20v865q0 20 21 20h98q21 0 21 -20v-865q0 -20 -21 -20h-98q-21 0 -21 20z" />
<glyph unicode="j" horiz-adv-x="428" d="M-45 -383q0 18 16 21q81 19 127.5 76.5t46.5 135.5v1035q0 20 21 20h98q21 0 21 -20v-1012q0 -109 -59 -197t-160 -131q-19 -9 -51 -17.5t-42 -8.5q-18 0 -18 20v78zM125 1221q0 35 26.5 62.5t61.5 27.5q38 0 65 -26t27 -64q0 -37 -27.5 -65t-64.5 -28q-38 0 -63 27 t-25 66z" />
<glyph unicode="k" horiz-adv-x="915" d="M145 20v1248q0 20 21 20h98q21 0 21 -20v-709q0 -22 18 -22q8 0 16 8l318 350q7 10 20 10h103q22 0 22 -16q0 -11 -8 -19l-239 -241q-19 -23 -19 -27q0 -10 14 -31l320 -514q20 -32 20 -41q0 -16 -22 -16h-117q-11 0 -18 10l-283 467q-6 12 -16 12q-9 0 -17 -8l-112 -114 v-347q0 -20 -21 -20h-98q-21 0 -21 20z" />
<glyph unicode="l" horiz-adv-x="428" d="M145 20v1248q0 20 21 20h98q21 0 21 -20v-1248q0 -20 -21 -20h-98q-21 0 -21 20z" />
<glyph unicode="m" horiz-adv-x="1492" d="M145 20v865q0 20 21 20h76q20 0 20 -20v-82q0 -25 17 -25q8 0 18 10q51 61 108.5 89t96.5 28q142 0 229 -121q7 -10 17 -10q6 0 16 10q92 121 248 121q146 0 242 -93.5t96 -240.5v-551q0 -20 -21 -20h-98q-21 0 -21 20v551q0 87 -63 152t-135 65q-68 0 -131.5 -65 t-63.5 -152v-551q0 -20 -20 -20h-99q-20 0 -20 20v551q0 87 -63.5 152t-135.5 65q-69 0 -131.5 -65t-62.5 -152v-551q0 -20 -21 -20h-98q-21 0 -21 20z" />
<glyph unicode="n" horiz-adv-x="1003" d="M145 20v865q0 20 21 20h76q20 0 20 -20v-82q0 -10 5.5 -16.5t13.5 -6.5q10 0 18 11q49 61 103 87.5t100 26.5q162 0 260 -92.5t98 -241.5v-551q0 -20 -20 -20h-99q-20 0 -20 20v551q0 89 -65 153t-154 64q-91 0 -154 -63t-63 -154v-551q0 -20 -21 -20h-98q-21 0 -21 20z " />
<glyph unicode="o" horiz-adv-x="937" d="M115 315v277q0 150 96 242t258 92t260 -92t98 -242v-277q0 -150 -98 -242.5t-260 -92.5t-258 92.5t-96 242.5zM252 315q0 -89 64 -154t153 -65t154 65t65 154v277q0 89 -65 153t-154 64q-91 0 -154 -63t-63 -154v-277z" />
<glyph unicode="p" horiz-adv-x="970" d="M145 -440v1325q0 20 21 20h76q20 0 20 -20v-82q0 -10 5.5 -16.5t13.5 -6.5q10 0 18 11q49 61 103 87.5t100 26.5q162 0 260 -92.5t98 -241.5v-235q0 -146 -97.5 -241t-240.5 -95q-43 0 -98 28.5t-105 88.5q-10 10 -18 10q-16 0 -16 -25v-542q0 -21 -21 -21h-98 q-21 0 -21 21zM285 336q0 -89 64 -154t153 -65t154 65t65 154v235q0 89 -65 153t-154 64q-91 0 -154 -63t-63 -154v-235z" />
<glyph unicode="q" horiz-adv-x="970" d="M115 336v235q0 149 96.5 241.5t257.5 92.5q45 0 99.5 -28t105.5 -91q7 -10 18 -10q8 0 13.5 6.5t5.5 16.5v86q0 20 20 20h76q20 0 20 -20v-1325q0 -21 -20 -21h-98q-21 0 -21 21v546q0 23 -18 23q-12 0 -19 -10q-49 -63 -103 -91t-99 -28q-142 0 -238 95t-96 241z M252 336q0 -89 64 -154t153 -65t154 65t65 154v235q0 89 -65 153t-154 64q-91 0 -154 -63t-63 -154v-235z" />
<glyph unicode="r" horiz-adv-x="610" d="M145 20v865q0 20 21 20h76q20 0 20 -20v-103q0 -22 19 -22q11 0 18 10q52 65 107 100t96 35h35q20 0 20 -20v-101q0 -20 -25 -20h-30q-92 0 -154.5 -61t-62.5 -152v-531q0 -20 -21 -20h-98q-21 0 -21 20z" />
<glyph unicode="s" horiz-adv-x="897" d="M94 156q0 10 15 16l71 35q9 6 19 6q9 0 16 -10q31 -52 83.5 -83.5t111.5 -31.5h63q90 0 139.5 46.5t49.5 111.5q0 24 -10 44t-32.5 35.5t-45.5 27t-61 21.5t-68 16.5t-76 15.5q-50 10 -80.5 18t-72.5 26t-65 41t-40 61.5t-17 88.5q0 132 91 208.5t225 76.5h63 q170 0 268 -105q45 -49 45 -65q0 -12 -14 -19l-61 -30q-4 -2 -9.5 -4.5t-9 -4.5t-6.5 -2q-9 0 -16 11q-34 50 -87 80t-110 30h-63q-183 0 -183 -141q0 -31 15.5 -55t40 -40t62.5 -29t74.5 -21.5t85.5 -18.5q7 -1 11 -2q34 -7 58 -12.5t56 -16t54 -22t45.5 -29.5t37.5 -39.5 t23 -51.5t9 -65q0 -126 -86 -210t-240 -84h-63q-178 0 -275 112q-41 51 -41 64z" />
<glyph unicode="t" horiz-adv-x="630" d="M29 809v39l223 235q15 15 24 15h31q21 0 21 -21v-151q0 -21 20 -21h150q20 0 20 -20v-76q0 -21 -20 -21h-150q-20 0 -20 -20v-453q0 -78 46.5 -136.5t127.5 -76.5q16 -3 16 -20v-80q0 -20 -18 -20q-28 0 -84 18q-109 35 -168.5 117.5t-59.5 197.5v453q0 20 -20 20h-119 q-20 0 -20 21z" />
<glyph unicode="u" horiz-adv-x="980" d="M125 336v549q0 20 20 20h97q20 0 20 -20v-549q0 -89 64 -154t153 -65q92 0 156.5 63.5t64.5 155.5v549q0 20 21 20h96q21 0 21 -20v-865q0 -20 -21 -20h-76q-20 0 -20 20v89q0 22 -19 22q-10 0 -18 -10q-95 -121 -205 -121q-161 0 -257.5 93.5t-96.5 242.5z" />
<glyph unicode="v" horiz-adv-x="874" d="M27 889q0 16 20 16h100q13 0 19 -12l246 -621q18 -46 22 -79h8q3 30 23 79l244 621q6 12 18 12h102q21 0 21 -16q0 -4 -3 -11.5l-8 -20t-8 -21.5l-333 -824q-6 -12 -19 -12h-82q-12 0 -18 12l-334 824q-18 49 -18 53z" />
<glyph unicode="w" horiz-adv-x="1251" d="M39 889q0 16 22 16h107q17 0 20 -14l150 -580q3 -11 10 -37t10 -43h9q3 17 10 43t10 37l162 580q3 14 20 14h115q18 0 21 -14l159 -580q18 -65 21 -80h8q3 17 10 43t10 37l150 580q3 14 20 14h107q22 0 22 -16q0 -8 -16 -58l-250 -817q-3 -14 -20 -14h-74q-18 0 -21 14 l-180 611q-11 36 -20 80h-8q-7 -34 -21 -80l-182 -611q-3 -14 -21 -14h-73q-18 0 -21 14l-252 824q-1 6 -5 18t-6.5 20.5t-2.5 12.5z" />
<glyph unicode="x" horiz-adv-x="827" d="M39 16q0 10 22 43l244 375q10 13 10 25q0 7 -10 22l-242 369q-20 32 -20 39q0 16 20 16h111q9 0 16 -10l207 -330q5 -10 19 -10q11 0 16 10l205 330q7 10 16 10h111q20 0 20 -16q0 -9 -30 -55l-232 -355q-10 -15 -10 -22q0 -8 10 -23l242 -375q22 -35 22 -43 q0 -16 -20 -16h-113q-11 0 -18 10l-205 332q-5 10 -16 10q-12 0 -17 -10l-207 -332q-7 -10 -16 -10h-115q-20 0 -20 16z" />
<glyph unicode="y" horiz-adv-x="980" d="M125 336v549q0 20 20 20h97q20 0 20 -20v-549q0 -89 64 -154t153 -65q104 0 162.5 70t58.5 149v549q0 20 21 20h96q21 0 21 -20v-1008q0 -161 -93 -259.5t-266 -98.5q-176 0 -270 108q-47 60 -47 70q0 11 14 18l74 37q16 8 20 8q10 0 17 -10q35 -53 87 -84t105 -31 q92 0 156.5 64t64.5 156v243q0 23 -18 23q-10 0 -18 -10q-41 -55 -92.5 -83t-92.5 -28q-161 0 -257.5 93.5t-96.5 242.5z" />
<glyph unicode="z" horiz-adv-x="874" d="M82 807v76q0 20 20 20h621q22 0 22 -16q0 -7 -18 -39l-410 -701q-4 -6 -4 -14q0 -16 23 -16h436q21 0 21 -21v-76q0 -20 -21 -20h-659q-23 0 -23 16q0 10 19 39l405 701q4 6 4 14q0 16 -22 16h-394q-20 0 -20 21z" />
<glyph unicode="{" horiz-adv-x="901" d="M184 514v90q0 18 17 21q81 18 127.5 76.5t46.5 136.5v309q0 114 52 198t148 125q68 29 111 29q19 0 19 -20v-80q0 -18 -17 -21q-80 -17 -127 -75t-47 -136v-352q0 -66 -49 -143t-119 -105v-8q68 -28 118 -115t50 -155v-336q0 -78 46.5 -136.5t127.5 -76.5q17 -3 17 -21 v-79q0 -21 -19 -21q-20 0 -60 11.5t-73 29.5q-85 44 -131.5 126t-46.5 189v308q0 77 -46.5 134.5t-127.5 76.5q-17 3 -17 20z" />
<glyph unicode="|" horiz-adv-x="491" d="M199 -512v2048h94v-2048h-94z" />
<glyph unicode="}" horiz-adv-x="901" d="M197 -281q0 18 16 21q81 18 127.5 76.5t46.5 136.5v336q0 68 50 155t118 115v8q-70 28 -119 105t-49 143v352q0 78 -47 136t-127 75q-16 3 -16 21v80q0 20 18 20q43 0 111 -29q96 -41 148 -125t52 -198v-309q0 -78 46.5 -136.5t127.5 -76.5q17 -3 17 -21v-90 q0 -17 -17 -20q-81 -19 -127.5 -76.5t-46.5 -134.5v-308q0 -107 -46.5 -189t-131.5 -126q-33 -18 -73 -29.5t-60 -11.5q-18 0 -18 21v79z" />
<glyph unicode="~" d="M111 440q96 154 231 154q98 0 195 -64q97 -63 163 -63q45 0 91 34t79 93l62 -66q-95 -153 -230 -153q-99 0 -196 63q-99 64 -166 64q-43 0 -89 -34t-79 -93z" />
<glyph unicode="&#xa0;" />
<glyph unicode="&#xa1;" horiz-adv-x="591" d="M197 838q0 40 30 69t70 29t71 -29.5t31 -68.5q0 -41 -30.5 -72t-71.5 -31q-42 0 -71 30t-29 73zM225 164l43 340q3 18 21 18h12q18 0 21 -18l45 -338v-528q0 -21 -21 -21h-100q-21 0 -21 21v526z" />
<glyph unicode="&#xa2;" d="M174 354v277q0 129 76 217.5t217 114.5q16 3 16 20v133q0 21 21 21h51q20 0 20 -21v-133q0 -17 15 -20q142 -21 221 -117q37 -46 37 -58q0 -10 -12 -16l-72 -39q-20 -10 -23 -10q-9 0 -16 10q-33 47 -76 76q-36 25 -57 25q-17 0 -17 -25v-641q0 -18 15 -18q19 0 49 20 q43 25 84 82q7 10 16 10q6 0 23 -10l74 -39q12 -6 12 -16q0 -8 -16.5 -32.5t-36.5 -45.5q-77 -80 -205 -99q-15 -3 -15 -20v-133q0 -21 -20 -21h-51q-21 0 -21 21v135q0 18 -16 21q-141 26 -217 113.5t-76 217.5zM313 354q0 -115 101 -182q36 -25 53 -25q16 0 16 21v645 q0 21 -18 21q-21 0 -66 -31q-86 -62 -86 -172v-277z" />
<glyph unicode="&#xa3;" d="M8 20v76q0 21 21 21h75q82 14 136.5 76t54.5 143v239q0 21 -21 21h-55q-20 0 -20 20v76q0 21 20 21h55q21 0 21 20v221q0 149 103.5 253t252.5 104q183 0 275 -111q43 -50 43 -65q0 -11 -15 -19l-73 -37q-16 -8 -23 -8q-9 0 -14 8q-36 54 -88 83.5t-105 29.5 q-92 0 -154.5 -62.5t-62.5 -154.5v-242q0 -20 21 -20h149q21 0 21 -21v-76q0 -20 -21 -20h-149q-21 0 -21 -21v-260q0 -38 -18 -77.5t-36 -67t-18 -35.5q0 -18 23 -18h508q20 0 20 -21v-76q0 -20 -20 -20h-864q-21 0 -21 20z" />
<glyph unicode="&#xa4;" horiz-adv-x="1261" d="M174 356q22 22 68 65.5t69 65.5q-80 112 -80 238q0 142 80 238q-22 23 -68 67l-69 66q50 54 74 78q22 -22 67.5 -68t69.5 -70q110 82 240 82q60 0 125 -21t112 -61q24 24 70.5 70t68.5 68q12 -13 36.5 -38.5t37.5 -39.5q-22 -22 -68 -66t-69 -67q80 -105 80 -238 q0 -128 -80 -238q23 -21 69 -65t68 -66q-13 -13 -37 -38t-37 -39l-137 137q-105 -84 -239 -84q-139 0 -240 84l-137 -137q-36 37 -74 77zM336 727q0 -117 85.5 -203t203.5 -86t203 85t85 204q0 123 -87.5 205t-198.5 82q-124 0 -207.5 -85.5t-83.5 -201.5z" />
<glyph unicode="&#xa5;" d="M92 213v74q0 20 21 20h321q21 0 21 21v184q0 20 -21 20h-321q-21 0 -21 21v76q0 20 21 20h276q23 0 23 17q0 4 -11 26l-286 539q-19 38 -19 41q0 16 23 16h117q10 0 18 -12l252 -516q7 -17 18 -17q12 0 19 17l248 516q8 12 18 12h117q22 0 22 -16q0 -12 -26 -58 l-279 -522q-10 -20 -10 -26q0 -17 22 -17h279q20 0 20 -20v-76q0 -21 -20 -21h-320q-20 0 -20 -20v-184q0 -21 20 -21h320q20 0 20 -20v-74q0 -20 -20 -20h-320q-20 0 -20 -21v-152q0 -20 -21 -20h-98q-20 0 -20 20v152q0 21 -21 21h-321q-21 0 -21 20z" />
<glyph unicode="&#xa6;" horiz-adv-x="491" d="M199 371h94v-754h-94v754zM199 748v753h94v-753h-94z" />
<glyph unicode="&#xa7;" d="M150 -301q0 11 14 18l69 35q20 10 25 10q9 0 16 -10q36 -54 87.5 -84t105.5 -30h90q89 0 154 65t65 154q0 53 -26 95.5t-69 70t-97.5 55.5t-111.5 51.5t-111.5 59t-97.5 77t-69 106.5t-26 146q0 113 55 195q2 3 8 11t9.5 14t3.5 10t-5 11t-11.5 15.5t-8.5 11.5 q-51 76 -51 189q0 151 96.5 243.5t257.5 92.5h35q178 0 274 -111q46 -59 46 -65q0 -11 -15 -19l-74 -37q-12 -8 -22 -8q-9 0 -14 8q-38 52 -91 82.5t-104 30.5h-35q-91 0 -154 -62.5t-63 -154.5q0 -42 21 -76t56 -59t81 -47.5t96.5 -45t101 -48t96.5 -60.5t81 -78.5 t56 -106.5t21 -139q0 -99 -47 -174q-1 -2 -8.5 -12.5t-12.5 -19t-5 -13.5t24 -45q49 -88 49 -194q0 -149 -98.5 -242.5t-259.5 -93.5h-90q-185 0 -277 114q-40 47 -40 64zM305 518q0 -37 15.5 -69t37.5 -54.5t63 -48t74 -42t89 -43.5t92 -46q38 -22 49 -22q12 0 18 12 q33 59 33 110q0 30 -8.5 57.5t-20.5 48.5t-36.5 43t-43.5 36t-55.5 34t-59 31t-67 32t-67.5 32q-50 26 -56 26q-9 0 -16 -10q-41 -61 -41 -127z" />
<glyph unicode="&#xa8;" horiz-adv-x="1024" d="M254 1145q0 38 26 63t64 25t64 -25t26 -63t-26 -65t-64 -27t-64 27t-26 65zM588 1145q0 38 25 63t63 25q39 0 65.5 -25t26.5 -63q0 -37 -27.5 -64.5t-64.5 -27.5q-38 0 -63 26.5t-25 65.5z" />
<glyph unicode="&#xa9;" horiz-adv-x="1433" d="M164 195v593q0 155 100.5 252t267.5 97h369q167 0 268 -97t101 -252v-593q0 -155 -101 -252t-268 -97h-369q-167 0 -267.5 97t-100.5 252zM256 195q0 -115 75.5 -185.5t200.5 -70.5h369q125 0 201 70.5t76 185.5v593q0 115 -76 185.5t-201 70.5h-369q-125 0 -200.5 -70.5 t-75.5 -185.5v-593zM455 403v203q0 109 71 175.5t189 66.5q123 0 190 -70q39 -45 39 -59q0 -9 -10 -14l-47 -25q-16 -8 -23 -8q-11 0 -16 8q-55 76 -133 76q-63 0 -107.5 -43.5t-44.5 -106.5v-203q0 -61 45 -106t107 -45q77 0 133 80q7 10 16 10q3 0 23 -10l49 -27 q12 -6 12 -16q0 -18 -30 -51q-70 -80 -203 -80q-118 0 -189 68t-71 177z" />
<glyph unicode="&#xaa;" horiz-adv-x="651" d="M59 823v8q0 80 54.5 128.5t136.5 48.5h178q14 0 14 16v45q0 59 -41 99t-100 40q-83 0 -129 -71q-11 -15 -18 -15q-5 0 -21 8l-51 27q-14 7 -14 21q0 19 32 55q71 78 199 78q118 0 190 -66.5t72 -175.5v-399q0 -25 -24 -25h-54q-24 0 -24 25v53q0 14 -8 14t-15 -10 q-30 -36 -65 -59t-64 -23h-57q-81 0 -136 49t-55 129zM174 823q0 -31 22.5 -53t53.5 -22h57q43 0 81 35.5t54 80.5v41q0 15 -14 15h-178q-31 0 -53.5 -21.5t-22.5 -52.5v-23z" />
<glyph unicode="&#xab;" horiz-adv-x="1138" d="M115 512v113q0 8 8 16l387 277q9 6 16 6q17 0 17 -23v-86q0 -8 -8 -16l-297 -213q-11 -11 -11 -17q0 -5 11 -16l297 -215q8 -8 8 -16v-86q0 -23 -17 -23q-7 0 -16 6l-387 277q-8 8 -8 16zM571 512v113q0 7 9 16l391 277q9 6 16 6q17 0 17 -23v-86q0 -7 -9 -16l-297 -213 q-10 -10 -10 -17q0 -6 10 -16l297 -215q9 -9 9 -16v-89q0 -22 -17 -22q-7 0 -16 6l-391 279q-9 9 -9 16z" />
<glyph unicode="&#xac;" d="M92 649v53q0 21 21 21h821q20 0 20 -21v-436q0 -20 -20 -20h-62q-20 0 -20 20v342q0 21 -21 21h-718q-21 0 -21 20z" />
<glyph unicode="&#xad;" horiz-adv-x="534" d="M102 403v99q0 20 21 20h291q20 0 20 -20v-99q0 -20 -20 -20h-291q-21 0 -21 20z" />
<glyph unicode="&#xae;" horiz-adv-x="860" d="M57 901v41q0 155 101 251.5t268 96.5h8q167 0 268 -96.5t101 -251.5v-41q0 -155 -101 -251.5t-268 -96.5h-8q-167 0 -268 96.5t-101 251.5zM119 901q0 -128 84 -207.5t223 -79.5h8q139 0 223 79.5t84 207.5v41q0 128 -84 207.5t-223 79.5h-8q-139 0 -223 -79.5 t-84 -207.5v-41zM303 758v344q0 20 21 20h129q59 0 94 -35t35 -94v-8q0 -24 -16 -50t-38 -42q-8 -5 -8 -14q0 -1 6 -19l43 -86q9 -14 9 -20q0 -17 -23 -17h-33q-12 0 -18 13l-47 108q-6 12 -19 12h-51q-20 0 -20 -20v-92q0 -21 -21 -21h-22q-21 0 -21 21zM367 948 q0 -20 20 -20h66q28 0 45.5 18.5t17.5 46.5v6q0 28 -18 47t-45 19h-66q-20 0 -20 -21v-96z" />
<glyph unicode="&#xaf;" horiz-adv-x="1024" d="M291 1116v76q0 20 20 20h398q20 0 20 -20v-76q0 -20 -20 -20h-398q-20 0 -20 20z" />
<glyph unicode="&#xb0;" horiz-adv-x="544" d="M88 932v205q0 77 50 125.5t134 48.5t134.5 -48.5t50.5 -125.5v-205q0 -77 -50.5 -125.5t-134.5 -48.5t-134 48.5t-50 125.5zM190 932q0 -32 25 -57t57 -25t57 25t25 57v205q0 32 -25 57t-57 25t-57 -25t-25 -57v-205z" />
<glyph unicode="&#xb1;" d="M92 20v56q0 20 21 20h821q20 0 20 -20v-56q0 -20 -20 -20h-821q-21 0 -21 20zM92 596v55q0 21 21 21h344q20 0 20 20v342q0 21 21 21h53q20 0 20 -21v-342q0 -20 21 -20h342q20 0 20 -21v-55q0 -21 -20 -21h-342q-21 0 -21 -20v-342q0 -20 -20 -20h-53q-21 0 -21 20v342 q0 20 -20 20h-344q-21 0 -21 21z" />
<glyph unicode="&#xb2;" horiz-adv-x="690" d="M78 1047q38 63 89.5 93.5t131.5 30.5h53q112 0 175 -59t63 -156q0 -26 -6 -48t-14.5 -37.5t-24 -30t-29 -23.5t-35.5 -19t-36.5 -15t-40 -13.5t-37.5 -13.5q-90 -35 -112 -51q-37 -27 -38 -68v-14q0 -11 14 -11h340q13 0 13 -10v-78q0 -10 -13 -10h-458q-13 0 -13 10v84 q0 44 13.5 80t31 58t49.5 42t54.5 29t60.5 23q15 5 41 14t37.5 13.5t30 12t26.5 14.5t17 17t12.5 22t3.5 28q0 48 -32.5 79t-92.5 31h-53q-70 0 -119 -74q-10 -10 -16 -4l-78 35q-13 8 -8 19z" />
<glyph unicode="&#xb3;" horiz-adv-x="690" d="M92 555q-7 14 6 20l78 37q9 6 17 -6q48 -76 120 -76h39q52 0 89.5 38t37.5 91v46q0 52 -37 88t-90 36h-104q-12 0 -12 15v71q0 13 12 13h104q55 0 91 37t36 90v20q0 54 -37 90.5t-90 36.5h-39q-73 0 -120 -74q-7 -14 -19 -6l-76 37q-12 9 -6 21q33 60 83.5 90t135.5 30 h41q110 0 176 -65t66 -172v-23q0 -54 -34.5 -97t-78.5 -58v-6q40 -17 76.5 -63.5t36.5 -106.5v-39q0 -108 -65.5 -172t-176.5 -64h-41q-85 0 -135.5 30.5t-83.5 90.5z" />
<glyph unicode="&#xb4;" horiz-adv-x="1024" d="M434 1034q0 8 6 17l142 209q8 12 22 12h135q10 0 16.5 -5.5t6.5 -13.5t-8 -16l-234 -209q-10 -10 -22 -10h-41q-23 0 -23 16z" />
<glyph unicode="&#xb5;" horiz-adv-x="980" d="M125 -307v1192q0 20 20 20h97q20 0 20 -20v-549q0 -89 64 -154t153 -65q92 0 156.5 63.5t64.5 155.5v549q0 20 21 20h96q21 0 21 -20v-865q0 -20 -21 -20h-76q-20 0 -20 20v89q0 22 -19 22q-10 0 -18 -10q-95 -121 -205 -121t-192 45q-11 6 -18 1.5t-7 -13.5v-340 q0 -21 -20 -21h-97q-20 0 -20 21z" />
<glyph unicode="&#xb6;" horiz-adv-x="1269" d="M135 528v406q0 161 97 257.5t260 96.5h591q21 0 21 -20v-1708q0 -21 -21 -21h-96q-20 0 -20 21v1591q0 20 -21 20h-205q-20 0 -20 -20v-1591q0 -21 -21 -21h-98q-20 0 -20 21v612q0 21 -21 21h-69q-161 0 -259 94t-98 241z" />
<glyph unicode="&#xb7;" d="M422 485q0 40 29.5 70.5t68.5 30.5q43 0 73 -29t30 -72q0 -41 -31 -71.5t-72 -30.5q-39 0 -68.5 31t-29.5 71z" />
<glyph unicode="&#xb8;" horiz-adv-x="1024" d="M354 -426q0 20 21 20h74q41 0 69.5 29t28.5 70v18q0 71 -105 99q-14 3 -14 16q0 9 12 33l82 174q6 12 19 12l45 -8q18 -3 18 -17q0 -4 -2 -8.5t-5.5 -10t-4.5 -9.5l-47 -98q-10 -17 -10 -27q0 -11 12 -17q46 -22 69 -52t23 -77v-28q0 -76 -55 -124t-135 -48h-74 q-21 0 -21 20v33z" />
<glyph unicode="&#xb9;" horiz-adv-x="690" d="M147 938q-9 9 0 18l215 211q9 4 11 4h43q12 0 12 -14v-530q0 -15 14 -15h138q12 0 12 -12v-74q0 -12 -12 -12h-418q-12 0 -12 12v74q0 12 12 12h137q16 0 16 15v325q0 9 -7.5 12.5t-14.5 -3.5l-76 -74q-10 -8 -18 0z" />
<glyph unicode="&#xba;" horiz-adv-x="657" d="M70 874v193q0 110 70 177t188 67t190 -67.5t72 -176.5v-193q0 -109 -72 -177t-190 -68t-188 67.5t-70 177.5zM186 874q0 -58 42.5 -100.5t99.5 -42.5q58 0 100.5 42.5t42.5 100.5v193q0 58 -42 99.5t-101 41.5t-100.5 -40.5t-41.5 -100.5v-193z" />
<glyph unicode="&#xbb;" horiz-adv-x="1138" d="M137 236v86q0 8 8 16l297 215q11 11 11 16q0 6 -11 17l-297 213q-8 8 -8 16v86q0 23 17 23q7 0 16 -6l391 -277q8 -8 8 -16v-113q0 -8 -8 -16l-391 -277q-9 -6 -16 -6q-17 0 -17 23zM598 236v86q0 8 8 16l297 215q10 10 10 16q0 7 -10 17l-297 213q-8 8 -8 16v86 q0 23 16 23q8 0 17 -6l387 -277q8 -8 8 -16v-113q0 -8 -8 -16l-387 -277q-9 -6 -17 -6q-16 0 -16 23z" />
<glyph unicode="&#xbc;" horiz-adv-x="1912" d="M233 938q-7 11 0 18l216 211q1 0 5 2t5 2h43q12 0 12 -14v-530q0 -15 14 -15h138q12 0 12 -12v-74q0 -12 -12 -12h-416q-14 0 -14 12v74q0 12 14 12h137q14 0 14 15v325q0 9 -6.5 12.5t-13.5 -3.5l-78 -74q-10 -8 -18 0zM644.5 8q-5.5 8 0.5 21l535 1249q6 12 18 12h49 q31 0 19 -28l-535 -1250q-6 -12 -18 -12h-49q-14 0 -19.5 8zM1014 20v91l362 524q3 6 13 6h96q14 0 14 -12v-510q0 -15 12 -15h97q14 0 14 -12v-72q0 -12 -14 -12h-97q-12 0 -12 -14v-178q0 -13 -14 -13h-88q-13 0 -13 13v178q0 14 -14 14h-342q-14 0 -14 12zM1130.5 110 q3.5 -6 12.5 -6h229q14 0 14 15v348q0 9 -8 11.5t-12 -3.5l-233 -350q-6 -9 -2.5 -15z" />
<glyph unicode="&#xbd;" horiz-adv-x="1912" d="M233 938q-7 11 0 18l216 211q1 0 5 2t5 2h43q12 0 12 -14v-530q0 -15 14 -15h138q12 0 12 -12v-74q0 -12 -12 -12h-416q-14 0 -14 12v74q0 12 14 12h137q14 0 14 15v325q0 9 -6.5 12.5t-13.5 -3.5l-78 -74q-10 -8 -18 0zM644.5 8q-5.5 8 0.5 21l535 1249q6 12 18 12h49 q31 0 19 -28l-535 -1250q-6 -12 -18 -12h-49q-14 0 -19.5 8zM1098 532q72 125 219 125h55q111 0 173.5 -59t62.5 -156q0 -26 -6 -48t-14.5 -37.5t-24.5 -30t-29 -23.5t-35.5 -19t-37 -15t-39.5 -13.5t-38 -13.5q-6 -2 -18 -7q-36 -14 -53.5 -22t-39 -21.5t-30 -30 t-8.5 -38.5v-14q0 -11 16 -11h338q13 0 13 -10v-78q0 -10 -13 -10h-456q-15 0 -15 10v84q0 37 8 67.5t25.5 53.5t33.5 38.5t45.5 30.5t47 22.5t51.5 19.5q13 4 40 13.5t37.5 13t29.5 11.5t26 15l17 17t13 22t3 28q0 48 -32 79.5t-91 31.5h-55q-70 0 -119 -74q-6 -12 -16 -4 l-78 35q-11 8 -6 18z" />
<glyph unicode="&#xbe;" horiz-adv-x="1912" d="M231 555q-7 14 7 20l75 37q13 6 17 -6q51 -76 123 -76h36q54 0 91.5 38t37.5 91v46q0 52 -37.5 88t-91.5 36h-102q-12 0 -12 15v71q0 13 12 13h102q55 0 92 37t37 90v20q0 54 -37.5 90.5t-91.5 36.5h-36q-73 0 -123 -74q-1 -6 -7 -7.5t-10 1.5l-75 37q-13 8 -7 21 q33 59 84 89.5t136 30.5h38q110 0 177 -65t67 -172v-23q0 -54 -34.5 -97t-77.5 -58q-1 -1 -1 -3.5t1 -2.5q39 -17 75.5 -63.5t36.5 -106.5v-39q0 -108 -66.5 -172t-177.5 -64h-38q-85 0 -136 30.5t-84 90.5zM644.5 8q-5.5 8 0.5 21l535 1249q6 12 18 12h49q31 0 19 -28 l-535 -1250q-6 -12 -18 -12h-49q-14 0 -19.5 8zM1014 20v91l362 524q3 6 13 6h96q14 0 14 -12v-510q0 -15 12 -15h97q14 0 14 -12v-72q0 -12 -14 -12h-97q-12 0 -12 -14v-178q0 -13 -14 -13h-88q-13 0 -13 13v178q0 14 -14 14h-342q-14 0 -14 12zM1130.5 110q3.5 -6 12.5 -6 h229q14 0 14 15v348q0 9 -8 11.5t-12 -3.5l-233 -350q-6 -9 -2.5 -15z" />
<glyph unicode="&#xbf;" d="M143 -70q0 61 14.5 110.5t33.5 79.5t54 57.5t58.5 40.5t64.5 32q11 5 17 8q86 41 127 82t41 119q0 7 -1 23t-1 22q0 18 20 18h99q20 0 20 -18q2 -35 2 -76q0 -33 -7 -61.5t-14 -48.5t-26.5 -42t-29 -32.5t-38.5 -28t-37.5 -22.5t-43.5 -22t-39 -19q-41 -21 -68 -38 t-54 -43.5t-40.5 -61.5t-13.5 -79q0 -91 64.5 -154t154.5 -63h82q53 0 104.5 29.5t87.5 83.5q7 10 17 10q6 0 14 -4l82 -43q12 -6 12 -16q0 -6 -14 -29.5t-31 -42.5q-93 -107 -272 -107h-82q-162 0 -259.5 93t-97.5 243zM485 836q0 42 30 71t73 29q40 0 70 -30t30 -70 t-30 -70.5t-70 -30.5q-43 0 -73 29t-30 72z" />
<glyph unicode="&#xc0;" horiz-adv-x="917" d="M18 16q0 7 15 52l366 1206q3 14 21 14h78q17 0 20 -14l363 -1194q18 -56 18 -64q0 -16 -22 -16h-105q-17 0 -20 14l-80 283q-2 12 -21 12h-385q-18 0 -20 -12l-80 -283q-3 -14 -21 -14h-104q-23 0 -23 16zM199 1602q0 14 16 14h162q17 0 26 -12l134 -177q4 -8 4 -10 q0 -10 -15 -10h-55q-16 0 -29 10l-235 172q-8 5 -8 13zM287 444q0 -18 22 -18h295q23 0 23 18l-140 535q-1 5 -10.5 39t-11.5 41h-8q-11 -44 -23 -80z" />
<glyph unicode="&#xc1;" horiz-adv-x="917" d="M18 16q0 7 15 52l366 1206q3 14 21 14h78q17 0 20 -14l363 -1194q18 -56 18 -64q0 -16 -22 -16h-105q-17 0 -20 14l-80 283q-2 12 -21 12h-385q-18 0 -20 -12l-80 -283q-3 -14 -21 -14h-104q-23 0 -23 16zM287 444q0 -18 22 -18h295q23 0 23 18l-140 535q-1 5 -10.5 39 t-11.5 41h-8q-11 -44 -23 -80zM385 1417q0 2 4 10l133 177q9 12 27 12h162q16 0 16 -14q0 -8 -8 -13l-236 -172q-13 -10 -28 -10h-56q-14 0 -14 10z" />
<glyph unicode="&#xc2;" horiz-adv-x="917" d="M18 16q0 7 15 52l366 1206q3 14 21 14h78q17 0 20 -14l363 -1194q18 -56 18 -64q0 -16 -22 -16h-105q-17 0 -20 14l-80 283q-2 12 -21 12h-385q-18 0 -20 -12l-80 -283q-3 -14 -21 -14h-104q-23 0 -23 16zM254 1413l4 8l133 185q7 10 23 10h98q16 0 23 -10l133 -185l4 -8 q0 -10 -15 -10h-88q-11 0 -20 12l-74 113q-5 8 -12 8q-4 0 -12 -8l-74 -113q-9 -12 -23 -12h-86q-14 0 -14 10zM287 444q0 -18 22 -18h295q23 0 23 18l-140 535q-1 5 -10.5 39t-11.5 41h-8q-11 -44 -23 -80z" />
<glyph unicode="&#xc3;" horiz-adv-x="917" d="M18 16q0 7 15 52l366 1206q3 14 21 14h78q17 0 20 -14l363 -1194q18 -56 18 -64q0 -16 -22 -16h-105q-17 0 -20 14l-80 283q-2 12 -21 12h-385q-18 0 -20 -12l-80 -283q-3 -14 -21 -14h-104q-23 0 -23 16zM199 1481q0 7 28 43q32 41 60.5 58t64.5 17q45 0 106.5 -35.5 t94.5 -35.5q26 0 47.5 12.5t50.5 44.5q8 8 15 8q6 0 16 -10l25 -20q10 -10 10 -17q0 -3 -27 -41q-63 -86 -133 -86q-45 0 -106.5 38t-94.5 38q-41 0 -90 -49q-8 -8 -16 -8q-5 0 -17 8l-22 18q-12 9 -12 17zM287 444q0 -18 22 -18h295q23 0 23 18l-140 535q-1 5 -10.5 39 t-11.5 41h-8q-11 -44 -23 -80z" />
<glyph unicode="&#xc4;" horiz-adv-x="917" d="M18 16q0 7 15 52l366 1206q3 14 21 14h78q17 0 20 -14l363 -1194q18 -56 18 -64q0 -16 -22 -16h-105q-17 0 -20 14l-80 283q-2 12 -21 12h-385q-18 0 -20 -12l-80 -283q-3 -14 -21 -14h-104q-23 0 -23 16zM225 1511q0 34 22.5 59t57.5 25q37 0 61.5 -24.5t24.5 -59.5 q0 -34 -25.5 -61t-60.5 -27q-37 0 -58.5 25.5t-21.5 62.5zM287 444q0 -18 22 -18h295q23 0 23 18l-140 535q-1 5 -10.5 39t-11.5 41h-8q-11 -44 -23 -80zM535 1511q0 33 23 58.5t56 25.5q37 0 61.5 -24.5t24.5 -59.5q0 -34 -25.5 -61t-60.5 -27q-37 0 -58 25.5t-21 62.5z " />
<glyph unicode="&#xc5;" horiz-adv-x="917" d="M18 16q0 7 15 52l338 1112q10 30 10 34q0 8 -12 17q-72 43 -72 133v63q0 69 44.5 111.5t119.5 42.5q74 0 120 -42.5t46 -111.5v-63q0 -89 -76 -133q-14 -8 -14 -19q0 -2 10 -32l334 -1100q18 -56 18 -64q0 -16 -22 -16h-105q-17 0 -20 14l-80 283q-2 12 -21 12h-385 q-18 0 -20 -12l-80 -283q-3 -14 -21 -14h-104q-23 0 -23 16zM287 444q0 -18 22 -18h295q23 0 23 18l-140 535q-1 5 -10.5 39t-11.5 41h-8q-11 -44 -23 -80zM358 1364q0 -43 28.5 -68.5t74.5 -25.5t75 26t29 68v63q0 42 -29 67.5t-75 25.5t-74.5 -25.5t-28.5 -67.5v-63z" />
<glyph unicode="&#xc6;" horiz-adv-x="1445" d="M-100 16q0 9 4 15l737 1247q7 10 18 10h666q21 0 21 -20v-76q0 -21 -21 -21h-534q-21 0 -21 -20v-418q0 -20 21 -20h438q20 0 20 -21v-76q0 -20 -20 -20h-438q-21 0 -21 -21v-438q0 -20 21 -20h534q21 0 21 -21v-76q0 -20 -21 -20h-674q-20 0 -20 20v269q0 20 -21 20 h-393q-18 0 -27 -18l-155 -281q-7 -10 -19 -10h-94q-22 0 -22 16zM285 442q0 -16 22 -16h303q21 0 21 20v136q0 402 6 475l-8 2q-3 -7 -11 -23t-16.5 -31.5t-9.5 -17.5l-303 -530q-4 -12 -4 -15z" />
<glyph unicode="&#xc7;" horiz-adv-x="950" d="M135 315v660q0 150 97.5 243t259.5 93h63q175 0 274 -109q45 -52 45 -67q0 -12 -14 -19l-78 -39q-9 -6 -18 -6t-14 8q-38 52 -91 82.5t-104 30.5h-63q-92 0 -155 -62.5t-63 -154.5v-660q0 -90 63.5 -154.5t154.5 -64.5h63q53 0 105.5 31.5t89.5 85.5q5 8 14 8t18 -6 l78 -39q14 -7 14 -18q0 -6 -14.5 -28.5t-32.5 -41.5q-94 -108 -272 -108q-25 0 -35 -21l-31 -65q-10 -25 -10 -27q0 -11 13 -17q46 -22 69 -52t23 -77v-28q0 -76 -55.5 -124t-135.5 -48h-74q-20 0 -20 20v33q0 20 20 20h74q41 0 70 29t29 70v18q0 71 -105 99q-14 3 -14 16 q0 9 12 33l35 73q10 20 10 35q0 16 -16 19q-129 22 -204 110.5t-75 218.5z" />
<glyph unicode="&#xc8;" horiz-adv-x="980" d="M168 20v1248q0 20 20 20h672q21 0 21 -20v-76q0 -21 -21 -21h-534q-21 0 -21 -20v-418q0 -20 21 -20h438q20 0 20 -21v-76q0 -20 -20 -20h-438q-21 0 -21 -21v-438q0 -20 21 -20h534q21 0 21 -21v-76q0 -20 -21 -20h-672q-20 0 -20 20zM264 1602q0 14 17 14h161 q18 0 27 -12l133 -177q4 -8 4 -10q0 -10 -14 -10h-55q-16 0 -29 10l-236 172q-8 5 -8 13z" />
<glyph unicode="&#xc9;" horiz-adv-x="980" d="M168 20v1248q0 20 20 20h672q21 0 21 -20v-76q0 -21 -21 -21h-534q-21 0 -21 -20v-418q0 -20 21 -20h438q20 0 20 -21v-76q0 -20 -20 -20h-438q-21 0 -21 -21v-438q0 -20 21 -20h534q21 0 21 -21v-76q0 -20 -21 -20h-672q-20 0 -20 20zM451 1417q0 2 4 10l133 177 q9 12 26 12h162q17 0 17 -14q0 -7 -9 -13l-235 -172q-13 -10 -29 -10h-55q-14 0 -14 10z" />
<glyph unicode="&#xca;" horiz-adv-x="980" d="M168 20v1248q0 20 20 20h672q21 0 21 -20v-76q0 -21 -21 -21h-534q-21 0 -21 -20v-418q0 -20 21 -20h438q20 0 20 -21v-76q0 -20 -20 -20h-438q-21 0 -21 -21v-438q0 -20 21 -20h534q21 0 21 -21v-76q0 -20 -21 -20h-672q-20 0 -20 20zM319 1413q0 1 1 2t2 2.5t2 3.5 l133 185q7 10 22 10h99q14 0 22 -10l133 -185l4 -8q0 -10 -14 -10h-88q-12 0 -21 12l-73 113q-5 8 -13 8q-4 0 -12 -8l-74 -113q-9 -12 -22 -12h-86q-15 0 -15 10z" />
<glyph unicode="&#xcb;" horiz-adv-x="980" d="M168 20v1248q0 20 20 20h672q21 0 21 -20v-76q0 -21 -21 -21h-534q-21 0 -21 -20v-418q0 -20 21 -20h438q20 0 20 -21v-76q0 -20 -20 -20h-438q-21 0 -21 -21v-438q0 -20 21 -20h534q21 0 21 -21v-76q0 -20 -21 -20h-672q-20 0 -20 20zM291 1511q0 34 22.5 59t57.5 25 q37 0 61.5 -24.5t24.5 -59.5q0 -34 -25.5 -61t-60.5 -27q-37 0 -58.5 25.5t-21.5 62.5zM600 1511q0 33 23.5 58.5t56.5 25.5q37 0 61.5 -24.5t24.5 -59.5q0 -34 -25.5 -61t-60.5 -27q-37 0 -58.5 25.5t-21.5 62.5z" />
<glyph unicode="&#xcc;" horiz-adv-x="471" d="M-27 1602q0 14 17 14h162q17 0 26 -12l133 -177q4 -8 4 -10q0 -10 -14 -10h-55q-16 0 -29 10l-235 172q-9 6 -9 13zM168 20v1248q0 20 20 20h97q20 0 20 -20v-1248q0 -20 -20 -20h-97q-20 0 -20 20z" />
<glyph unicode="&#xcd;" horiz-adv-x="471" d="M160 1417q0 2 4 10l133 177q9 12 27 12h161q17 0 17 -14q0 -8 -8 -13l-236 -172q-13 -10 -29 -10h-55q-14 0 -14 10zM168 20v1248q0 20 20 20h97q20 0 20 -20v-1248q0 -20 -20 -20h-97q-20 0 -20 20z" />
<glyph unicode="&#xce;" horiz-adv-x="471" d="M29 1413l4 8l133 185q7 10 22 10h99q15 0 22 -10l133 -185l4 -8q0 -10 -14 -10h-88q-11 0 -20 12l-74 113q-5 8 -12 8q-5 0 -13 -8l-73 -113q-9 -12 -23 -12h-86q-14 0 -14 10zM168 20v1248q0 20 20 20h97q20 0 20 -20v-1248q0 -20 -20 -20h-97q-20 0 -20 20z" />
<glyph unicode="&#xcf;" horiz-adv-x="471" d="M0 1511q0 34 22.5 59t57.5 25q37 0 61.5 -24.5t24.5 -59.5q0 -34 -25.5 -61t-60.5 -27q-37 0 -58.5 25.5t-21.5 62.5zM168 20v1248q0 20 20 20h97q20 0 20 -20v-1248q0 -20 -20 -20h-97q-20 0 -20 20zM309 1511q0 33 23.5 58.5t56.5 25.5q37 0 61.5 -24.5t24.5 -59.5 q0 -34 -25.5 -61t-60.5 -27q-37 0 -58.5 25.5t-21.5 62.5z" />
<glyph unicode="&#xd0;" horiz-adv-x="1077" d="M43 604v78q0 20 20 20h87q18 0 18 19v547q0 20 20 20h398q163 0 260.5 -96t97.5 -258v-576q0 -164 -97.5 -261t-260.5 -97h-398q-20 0 -20 20v545q0 19 -16 19h-89q-20 0 -20 20zM305 137q0 -20 21 -20h260q92 0 156.5 63.5t64.5 155.5v618q0 90 -64.5 153.5t-156.5 63.5 h-260q-21 0 -21 -20v-430q0 -19 19 -19h159q21 0 21 -20v-78q0 -20 -21 -20h-161q-17 0 -17 -17v-430z" />
<glyph unicode="&#xd1;" horiz-adv-x="1140" d="M168 20v1248q0 20 20 20h95q11 0 18 -10l498 -911q25 -41 37 -74l8 2q-6 73 -6 475v498q0 20 20 20h98q21 0 21 -20v-1248q0 -20 -21 -20h-96q-11 0 -18 10l-498 901q-27 47 -37 74l-8 -2q6 -73 6 -475v-488q0 -20 -20 -20h-97q-20 0 -20 20zM311 1481q0 6 29 43 q32 41 60.5 58t64.5 17q45 0 106.5 -35.5t94.5 -35.5q26 0 47.5 12.5t50.5 44.5q8 8 14 8q7 0 17 -10l24 -20q10 -10 10 -17q0 -5 -26 -41q-63 -86 -133 -86q-45 0 -106.5 38t-94.5 38q-41 0 -90 -49q-8 -8 -17 -8q-4 0 -16 8l-22 18q-13 10 -13 17z" />
<glyph unicode="&#xd2;" d="M135 315v660q0 150 97.5 243t259.5 93h63q162 0 260 -93t98 -243v-660q0 -150 -98 -242.5t-260 -92.5h-63q-162 0 -259.5 92.5t-97.5 242.5zM258 1602q0 14 16 14h162q18 0 27 -12l133 -177q4 -8 4 -10q0 -10 -14 -10h-56q-15 0 -28 10l-236 172q-8 5 -8 13zM274 315 q0 -90 63.5 -154.5t154.5 -64.5h63q89 0 154 65t65 154v660q0 91 -64.5 154t-154.5 63h-63q-92 0 -155 -62.5t-63 -154.5v-660z" />
<glyph unicode="&#xd3;" d="M135 315v660q0 150 97.5 243t259.5 93h63q162 0 260 -93t98 -243v-660q0 -150 -98 -242.5t-260 -92.5h-63q-162 0 -259.5 92.5t-97.5 242.5zM274 315q0 -90 63.5 -154.5t154.5 -64.5h63q89 0 154 65t65 154v660q0 91 -64.5 154t-154.5 63h-63q-92 0 -155 -62.5 t-63 -154.5v-660zM444 1417l5 10l133 177q9 12 26 12h162q16 0 16 -14q0 -8 -8 -13l-235 -172q-13 -10 -29 -10h-55q-15 0 -15 10z" />
<glyph unicode="&#xd4;" d="M135 315v660q0 150 97.5 243t259.5 93h63q162 0 260 -93t98 -243v-660q0 -150 -98 -242.5t-260 -92.5h-63q-162 0 -259.5 92.5t-97.5 242.5zM274 315q0 -90 63.5 -154.5t154.5 -64.5h63q89 0 154 65t65 154v660q0 91 -64.5 154t-154.5 63h-63q-92 0 -155 -62.5 t-63 -154.5v-660zM313 1413l4 8l134 185q7 10 22 10h98q15 0 23 -10l133 -185l4 -8q0 -10 -14 -10h-88q-12 0 -21 12l-73 113q-5 8 -13 8q-4 0 -12 -8l-74 -113q-9 -12 -22 -12h-86q-15 0 -15 10z" />
<glyph unicode="&#xd5;" d="M135 315v660q0 150 97.5 243t259.5 93h63q162 0 260 -93t98 -243v-660q0 -150 -98 -242.5t-260 -92.5h-63q-162 0 -259.5 92.5t-97.5 242.5zM258 1481q0 6 29 43q32 41 60.5 58t64.5 17q45 0 106 -35.5t94 -35.5q26 0 48 12.5t51 44.5q8 8 14 8t16 -10l25 -20 q10 -10 10 -17q0 -5 -26 -41q-63 -86 -134 -86q-45 0 -106 38t-94 38q-41 0 -90 -49q-8 -8 -17 -8q-4 0 -16 8l-23 18q-12 9 -12 17zM274 315q0 -90 63.5 -154.5t154.5 -64.5h63q89 0 154 65t65 154v660q0 91 -64.5 154t-154.5 63h-63q-92 0 -155 -62.5t-63 -154.5v-660z " />
<glyph unicode="&#xd6;" d="M135 315v660q0 150 97.5 243t259.5 93h63q162 0 260 -93t98 -243v-660q0 -150 -98 -242.5t-260 -92.5h-63q-162 0 -259.5 92.5t-97.5 242.5zM274 315q0 -90 63.5 -154.5t154.5 -64.5h63q89 0 154 65t65 154v660q0 91 -64.5 154t-154.5 63h-63q-92 0 -155 -62.5 t-63 -154.5v-660zM285 1511q0 34 22.5 59t57.5 25q37 0 61.5 -24.5t24.5 -59.5q0 -34 -25.5 -61t-60.5 -27q-37 0 -58.5 25.5t-21.5 62.5zM594 1511q0 33 23.5 58.5t56.5 25.5q37 0 61.5 -24.5t24.5 -59.5q0 -34 -25.5 -61t-60.5 -27q-37 0 -58.5 25.5t-21.5 62.5z" />
<glyph unicode="&#xd7;" d="M170 170q-14 14 0 29l270 270q16 15 0 31l-270 270q-14 14 0 29l39 39q15 14 29 0l270 -271q16 -15 31 0l270 271q15 14 29 0l39 -39q15 -15 0 -29l-271 -270q-16 -16 0 -31l271 -270q15 -15 0 -29l-39 -39q-14 -15 -29 0l-270 270q-15 15 -31 0l-270 -270q-14 -15 -29 0 z" />
<glyph unicode="&#xd8;" d="M135 315v660q0 150 97.5 243t259.5 93h63q162 0 260 -93t98 -243v-660q0 -150 -98 -242.5t-260 -92.5h-63q-162 0 -259.5 92.5t-97.5 242.5zM274 315q0 -24 2 -32q7 -21 21 -21q11 0 18 17l369 854q2 2 2 8q0 9 -10 16q-50 35 -121 35h-63q-92 0 -155 -62.5t-63 -154.5 v-660zM358 152q0 -8 7 -15q55 -41 127 -41h63q89 0 154 65t65 154v660q0 17 -4 45q-3 20 -18 20t-21 -16l-371 -862q-2 -4 -2 -10z" />
<glyph unicode="&#xd9;" d="M135 315v953q0 20 21 20h98q20 0 20 -20v-953q0 -90 63.5 -154.5t154.5 -64.5h63q89 0 154 65t65 154v953q0 20 21 20h98q20 0 20 -20v-953q0 -150 -98 -242.5t-260 -92.5h-63q-162 0 -259.5 92.5t-97.5 242.5zM231 1602q0 14 17 14h162q17 0 26 -12l133 -177q4 -8 4 -10 q0 -10 -14 -10h-55q-16 0 -29 10l-235 172q-9 6 -9 13z" />
<glyph unicode="&#xda;" d="M135 315v953q0 20 21 20h98q20 0 20 -20v-953q0 -90 63.5 -154.5t154.5 -64.5h63q89 0 154 65t65 154v953q0 20 21 20h98q20 0 20 -20v-953q0 -150 -98 -242.5t-260 -92.5h-63q-162 0 -259.5 92.5t-97.5 242.5zM418 1417q0 2 4 10l133 177q9 12 27 12h161q17 0 17 -14 q0 -8 -8 -13l-236 -172q-13 -10 -29 -10h-55q-14 0 -14 10z" />
<glyph unicode="&#xdb;" d="M135 315v953q0 20 21 20h98q20 0 20 -20v-953q0 -90 63.5 -154.5t154.5 -64.5h63q89 0 154 65t65 154v953q0 20 21 20h98q20 0 20 -20v-953q0 -150 -98 -242.5t-260 -92.5h-63q-162 0 -259.5 92.5t-97.5 242.5zM287 1413l4 8l133 185q7 10 22 10h99q15 0 22 -10l133 -185 q1 -2 2 -3.5t2 -2.5t1 -2q0 -10 -15 -10h-88q-11 0 -20 12l-74 113q-5 8 -12 8q-5 0 -13 -8l-73 -113q-9 -12 -23 -12h-86q-14 0 -14 10z" />
<glyph unicode="&#xdc;" d="M135 315v953q0 20 21 20h98q20 0 20 -20v-953q0 -90 63.5 -154.5t154.5 -64.5h63q89 0 154 65t65 154v953q0 20 21 20h98q20 0 20 -20v-953q0 -150 -98 -242.5t-260 -92.5h-63q-162 0 -259.5 92.5t-97.5 242.5zM258 1511q0 34 22.5 59t57.5 25q37 0 61.5 -24.5 t24.5 -59.5q0 -34 -25.5 -61t-60.5 -27q-37 0 -58.5 25.5t-21.5 62.5zM567 1511q0 33 23.5 58.5t56.5 25.5q37 0 61.5 -24.5t24.5 -59.5q0 -34 -25.5 -61t-60.5 -27q-37 0 -58.5 25.5t-21.5 62.5z" />
<glyph unicode="&#xdd;" horiz-adv-x="917" d="M33 1272q0 16 22 16h117q10 0 18 -12l252 -516q7 -17 19 -17q11 0 18 17l248 516q8 12 18 12h117q23 0 23 -16q0 -10 -41 -84l-316 -592v-576q0 -20 -20 -20h-100q-21 0 -21 20v576l-317 600q-37 68 -37 76zM381 1417q0 2 4 10l133 177q9 12 27 12h162q16 0 16 -14 q0 -8 -8 -13l-236 -172q-13 -10 -28 -10h-56q-14 0 -14 10z" />
<glyph unicode="&#xde;" horiz-adv-x="991" d="M168 20v1248q0 20 20 20h97q20 0 20 -20v-205q0 -21 23 -21h258q163 0 260.5 -96.5t97.5 -257.5q0 -145 -99 -241.5t-259 -96.5h-260q-21 0 -21 -20v-310q0 -20 -20 -20h-97q-20 0 -20 20zM305 487q0 -20 21 -20h260q92 0 156.5 64.5t64.5 156.5v21q0 90 -64.5 153.5 t-156.5 63.5h-260q-21 0 -21 -21v-418z" />
<glyph unicode="&#xdf;" horiz-adv-x="997" d="M82 713v75q0 21 20 21h56q20 0 20 20v125q0 149 104 253t253 104q163 0 260.5 -97t97.5 -260v-43q0 -69 -45 -137t-111 -100q-16 -6 -16 -19q0 -8 16 -18q67 -33 111.5 -106t44.5 -146v-53q0 -118 -55.5 -203t-157.5 -123q-66 -24 -100 -24q-19 0 -19 20v80q0 17 17 20 q81 19 128.5 77.5t47.5 135.5v64q0 77 -47.5 134.5t-128.5 76.5q-17 3 -17 20v88q0 18 17 21q81 20 128.5 78.5t47.5 136.5v41q0 91 -64.5 154t-154.5 63q-97 0 -157.5 -61.5t-60.5 -155.5v-955q0 -20 -20 -20h-98q-21 0 -21 20v652q0 20 -20 20h-56q-20 0 -20 21z" />
<glyph unicode="&#xe0;" horiz-adv-x="946" d="M115 240v12q0 106 74 171.5t184 65.5h270q21 0 21 19v84q0 90 -64.5 151.5t-155.5 61.5q-53 0 -104.5 -29.5t-87.5 -83.5q-7 -10 -16 -10q-7 0 -23 8l-74 39q-12 6 -12 16q0 13 39 62q93 115 278 115q163 0 261 -90.5t98 -239.5v-572q0 -20 -21 -20h-75q-21 0 -21 20v89 q0 24 -18 24q-9 0 -19 -10q-46 -54 -100 -88.5t-94 -34.5h-82q-110 0 -184 66.5t-74 173.5zM201 1253q0 19 22 19h135q15 0 23 -12l141 -209q6 -9 6 -17q0 -16 -22 -16h-41q-13 0 -23 10l-233 209q-8 8 -8 16zM252 240q0 -50 36 -86.5t85 -36.5h82q66 0 124 53.5t85 124.5 v78q0 20 -21 20h-270q-51 0 -86 -35t-35 -86v-32z" />
<glyph unicode="&#xe1;" horiz-adv-x="946" d="M115 240v12q0 106 74 171.5t184 65.5h270q21 0 21 19v84q0 90 -64.5 151.5t-155.5 61.5q-53 0 -104.5 -29.5t-87.5 -83.5q-7 -10 -16 -10q-7 0 -23 8l-74 39q-12 6 -12 16q0 13 39 62q93 115 278 115q163 0 261 -90.5t98 -239.5v-572q0 -20 -21 -20h-75q-21 0 -21 20v89 q0 24 -18 24q-9 0 -19 -10q-46 -54 -100 -88.5t-94 -34.5h-82q-110 0 -184 66.5t-74 173.5zM252 240q0 -50 36 -86.5t85 -36.5h82q66 0 124 53.5t85 124.5v78q0 20 -21 20h-270q-51 0 -86 -35t-35 -86v-32zM408 1034q0 8 6 17l141 209q8 12 23 12h135q22 0 22 -19 q0 -8 -8 -16l-233 -209q-10 -10 -23 -10h-41q-22 0 -22 16z" />
<glyph unicode="&#xe2;" horiz-adv-x="946" d="M115 240v12q0 106 74 171.5t184 65.5h270q21 0 21 19v84q0 90 -64.5 151.5t-155.5 61.5q-53 0 -104.5 -29.5t-87.5 -83.5q-7 -10 -16 -10q-7 0 -23 8l-74 39q-12 6 -12 16q0 13 39 62q93 115 278 115q163 0 261 -90.5t98 -239.5v-572q0 -20 -21 -20h-75q-21 0 -21 20v89 q0 24 -18 24q-9 0 -19 -10q-46 -54 -100 -88.5t-94 -34.5h-82q-110 0 -184 66.5t-74 173.5zM248 1034q0 8 6 17l164 215q8 8 16 8h64q8 0 16 -8l166 -215q6 -9 6 -17q0 -16 -22 -16h-72q-9 0 -17 8l-90 127q-7 10 -16 10q-6 0 -16 -10l-97 -127q-8 -8 -16 -8h-70 q-22 0 -22 16zM252 240q0 -50 36 -86.5t85 -36.5h82q66 0 124 53.5t85 124.5v78q0 20 -21 20h-270q-51 0 -86 -35t-35 -86v-32z" />
<glyph unicode="&#xe3;" horiz-adv-x="946" d="M115 240v12q0 106 74 171.5t184 65.5h270q21 0 21 19v84q0 90 -64.5 151.5t-155.5 61.5q-53 0 -104.5 -29.5t-87.5 -83.5q-7 -10 -16 -10q-7 0 -23 8l-74 39q-12 6 -12 16q0 13 39 62q93 115 278 115q163 0 261 -90.5t98 -239.5v-572q0 -20 -21 -20h-75q-21 0 -21 20v89 q0 24 -18 24q-9 0 -19 -10q-46 -54 -100 -88.5t-94 -34.5h-82q-110 0 -184 66.5t-74 173.5zM172 1122q0 8 29 49q59 82 135 82q60 0 121 -47l43 -32q40 -31 90 -31q55 0 110 55q8 8 15 8q6 0 12 -6l18 -14q11 -7 11 -17q0 -4 -37 -57q-61 -76 -129 -76q-45 0 -127 54l-41 26 q-50 31 -86 31q-54 0 -107 -53q-7 -7 -14 -7t-12 5l-21 14q-10 7 -10 16zM252 240q0 -50 36 -86.5t85 -36.5h82q66 0 124 53.5t85 124.5v78q0 20 -21 20h-270q-51 0 -86 -35t-35 -86v-32z" />
<glyph unicode="&#xe4;" horiz-adv-x="946" d="M115 240v12q0 106 74 171.5t184 65.5h270q21 0 21 19v84q0 90 -64.5 151.5t-155.5 61.5q-53 0 -104.5 -29.5t-87.5 -83.5q-7 -10 -16 -10q-7 0 -23 8l-74 39q-12 6 -12 16q0 13 39 62q93 115 278 115q163 0 261 -90.5t98 -239.5v-572q0 -20 -21 -20h-75q-21 0 -21 20v89 q0 24 -18 24q-9 0 -19 -10q-46 -54 -100 -88.5t-94 -34.5h-82q-110 0 -184 66.5t-74 173.5zM211 1145q0 38 26 63t64 25t64 -25t26 -63t-26 -65t-64 -27t-64 27t-26 65zM252 240q0 -50 36 -86.5t85 -36.5h82q66 0 124 53.5t85 124.5v78q0 20 -21 20h-270q-51 0 -86 -35 t-35 -86v-32zM545 1145q0 38 25 63t63 25q39 0 65.5 -25t26.5 -63q0 -37 -27.5 -64.5t-64.5 -27.5q-38 0 -63 26.5t-25 65.5z" />
<glyph unicode="&#xe5;" horiz-adv-x="946" d="M115 240v12q0 106 74 171.5t184 65.5h270q21 0 21 19v84q0 90 -64.5 151.5t-155.5 61.5q-53 0 -104.5 -29.5t-87.5 -83.5q-7 -10 -16 -10q-7 0 -23 8l-74 39q-12 6 -12 16q0 13 39 62q93 115 278 115q163 0 261 -90.5t98 -239.5v-572q0 -20 -21 -20h-75q-21 0 -21 20v89 q0 24 -18 24q-9 0 -19 -10q-46 -54 -100 -88.5t-94 -34.5h-82q-110 0 -184 66.5t-74 173.5zM252 240q0 -50 36 -86.5t85 -36.5h82q66 0 124 53.5t85 124.5v78q0 20 -21 20h-270q-51 0 -86 -35t-35 -86v-32zM303 1174v63q0 69 44.5 111.5t119.5 42.5q74 0 120 -42.5 t46 -111.5v-63q0 -69 -46.5 -112.5t-119.5 -43.5q-74 0 -119 43t-45 113zM365 1174q0 -43 28 -69t74 -26t75 26t29 69v63q0 42 -29 67t-75 25t-74 -25t-28 -67v-63z" />
<glyph unicode="&#xe6;" horiz-adv-x="1513" d="M115 219v64q0 104 72.5 160.5t185.5 56.5h295q20 0 20 20v68q0 89 -65 153t-154 64q-53 0 -105 -29.5t-88 -83.5q-7 -10 -16 -10q-7 0 -27 10l-69 37q-12 6 -12 16q0 15 34 58q94 119 283 119q169 0 283 -111q12 -8 14 -8q9 0 14 8q112 115 264 115q104 0 188 -51 t127.5 -127t43.5 -156v-125q0 -21 -21 -21h-534q-21 0 -21 -20v-111q0 -89 64 -154t153 -65q53 0 105.5 31.5t89.5 85.5q5 8 14 8q1 0 19 -6l78 -39q14 -7 14 -18q0 -5 -12.5 -25t-30.5 -41q-93 -112 -277 -112q-190 0 -301 149q-8 10 -16 10q-12 0 -18 -12 q-42 -71 -109.5 -109t-120.5 -38h-106q-110 0 -184 66t-74 173zM252 219q0 -50 36 -86.5t85 -36.5h106q66 0 124 54.5t85 125.5v107q0 20 -20 20h-295q-51 0 -86 -34.5t-35 -85.5v-64zM827 563q0 -20 21 -20h395q21 0 21 20v29q0 89 -65 153t-155 64q-91 0 -154 -63 t-63 -154v-29z" />
<glyph unicode="&#xe7;" horiz-adv-x="870" d="M115 315v277q0 150 96 242t258 92q181 0 274 -107q45 -52 45 -67q0 -12 -14 -19l-74 -37q-16 -8 -22 -8q-9 0 -14 8q-37 52 -89.5 82.5t-105.5 30.5q-91 0 -154 -63t-63 -154v-277q0 -89 64 -154t153 -65q53 0 105.5 31.5t89.5 85.5q5 8 14 8q7 0 27 -10l69 -35 q14 -7 14 -18q0 -13 -45 -68q-46 -53 -111 -80.5t-124 -27.5q-21 0 -29 -19l-33 -69q-10 -25 -10 -27q0 -11 13 -17q46 -22 69 -52t23 -77v-28q0 -76 -55.5 -124t-135.5 -48h-74q-20 0 -20 20v33q0 20 20 20h74q41 0 70 29t29 70v18q0 71 -105 99q-14 3 -14 16q0 9 12 33 l39 82q10 20 10 30q0 15 -18 19q-120 26 -189 112.5t-69 212.5z" />
<glyph unicode="&#xe8;" horiz-adv-x="937" d="M115 315v277q0 60 25.5 119t70 107t112.5 78t146 30t147 -30t114 -78t71 -107t26 -119v-125q0 -21 -20 -21h-535q-20 0 -20 -20v-111q0 -89 64 -154t153 -65q53 0 105.5 31.5t89.5 85.5q5 8 14 8q2 0 22 -8l74 -37q14 -7 14 -18q0 -16 -45 -68q-92 -110 -274 -110 q-162 0 -258 92.5t-96 242.5zM201 1253q0 19 22 19h135q15 0 23 -12l141 -209q6 -9 6 -17q0 -16 -22 -16h-41q-13 0 -23 10l-233 209q-8 8 -8 16zM252 563q0 -20 20 -20h396q20 0 20 20v29q0 89 -65 153t-154 64q-91 0 -154 -63t-63 -154v-29z" />
<glyph unicode="&#xe9;" horiz-adv-x="937" d="M115 315v277q0 60 25.5 119t70 107t112.5 78t146 30t147 -30t114 -78t71 -107t26 -119v-125q0 -21 -20 -21h-535q-20 0 -20 -20v-111q0 -89 64 -154t153 -65q53 0 105.5 31.5t89.5 85.5q5 8 14 8q2 0 22 -8l74 -37q14 -7 14 -18q0 -16 -45 -68q-92 -110 -274 -110 q-162 0 -258 92.5t-96 242.5zM252 563q0 -20 20 -20h396q20 0 20 20v29q0 89 -65 153t-154 64q-91 0 -154 -63t-63 -154v-29zM408 1034q0 8 6 17l141 209q8 12 23 12h135q22 0 22 -19q0 -8 -8 -16l-233 -209q-10 -10 -23 -10h-41q-22 0 -22 16z" />
<glyph unicode="&#xea;" horiz-adv-x="937" d="M115 315v277q0 60 25.5 119t70 107t112.5 78t146 30t147 -30t114 -78t71 -107t26 -119v-125q0 -21 -20 -21h-535q-20 0 -20 -20v-111q0 -89 64 -154t153 -65q53 0 105.5 31.5t89.5 85.5q5 8 14 8q2 0 22 -8l74 -37q14 -7 14 -18q0 -16 -45 -68q-92 -110 -274 -110 q-162 0 -258 92.5t-96 242.5zM248 1034q0 8 6 17l164 215q8 8 16 8h64q8 0 16 -8l166 -215q6 -9 6 -17q0 -16 -22 -16h-72q-9 0 -17 8l-90 127q-7 10 -16 10q-6 0 -16 -10l-97 -127q-8 -8 -16 -8h-70q-22 0 -22 16zM252 563q0 -20 20 -20h396q20 0 20 20v29q0 89 -65 153 t-154 64q-91 0 -154 -63t-63 -154v-29z" />
<glyph unicode="&#xeb;" horiz-adv-x="937" d="M115 315v277q0 60 25.5 119t70 107t112.5 78t146 30t147 -30t114 -78t71 -107t26 -119v-125q0 -21 -20 -21h-535q-20 0 -20 -20v-111q0 -89 64 -154t153 -65q53 0 105.5 31.5t89.5 85.5q5 8 14 8q2 0 22 -8l74 -37q14 -7 14 -18q0 -16 -45 -68q-92 -110 -274 -110 q-162 0 -258 92.5t-96 242.5zM211 1145q0 38 26 63t64 25t64 -25t26 -63t-26 -65t-64 -27t-64 27t-26 65zM252 563q0 -20 20 -20h396q20 0 20 20v29q0 89 -65 153t-154 64q-91 0 -154 -63t-63 -154v-29zM545 1145q0 38 25 63t63 25q39 0 65.5 -25t26.5 -63 q0 -37 -27.5 -64.5t-64.5 -27.5q-38 0 -63 26.5t-25 65.5z" />
<glyph unicode="&#xec;" horiz-adv-x="428" d="M-53 1253q0 19 22 19h135q15 0 23 -12l141 -209q6 -9 6 -17q0 -16 -22 -16h-41q-13 0 -23 10l-233 209q-8 8 -8 16zM145 20v865q0 20 21 20h98q21 0 21 -20v-865q0 -20 -21 -20h-98q-21 0 -21 20z" />
<glyph unicode="&#xed;" horiz-adv-x="428" d="M145 20v865q0 20 21 20h98q21 0 21 -20v-865q0 -20 -21 -20h-98q-21 0 -21 20zM154 1034q0 8 6 17l141 209q8 12 23 12h135q22 0 22 -19q0 -8 -8 -16l-233 -209q-10 -10 -23 -10h-41q-22 0 -22 16z" />
<glyph unicode="&#xee;" horiz-adv-x="428" d="M-6 1034q0 8 6 17l164 215q8 8 16 8h64q8 0 16 -8l166 -215q6 -9 6 -17q0 -16 -22 -16h-72q-8 0 -16 8l-91 127q-7 10 -16 10q-6 0 -16 -10l-97 -127q-8 -8 -16 -8h-70q-22 0 -22 16zM145 20v865q0 20 21 20h98q21 0 21 -20v-865q0 -20 -21 -20h-98q-21 0 -21 20z" />
<glyph unicode="&#xef;" horiz-adv-x="428" d="M-43 1145q0 38 26 63t64 25t64 -25t26 -63t-26 -65t-64 -27t-64 27t-26 65zM145 20v865q0 20 21 20h98q21 0 21 -20v-865q0 -20 -21 -20h-98q-21 0 -21 20zM291 1145q0 38 25 63t63 25q39 0 65.5 -25t26.5 -63q0 -37 -27.5 -64.5t-64.5 -27.5q-38 0 -63 26.5t-25 65.5z " />
<glyph unicode="&#xf0;" horiz-adv-x="937" d="M115 315v277q0 150 96 242t258 92h2l-117 116l-188 -84q-10 -4 -19.5 -0.5t-9.5 11.5v39q0 27 13 32l143 64l-158 158q-9 10 -1.5 18t22.5 8h106q7 0 21 -14l120 -121l207 92q8 3 18.5 -0.5t10.5 -11.5v-45q0 -21 -16 -27l-158 -69l299 -297q63 -81 63 -203v-277 q0 -150 -98 -242.5t-260 -92.5t-258 92.5t-96 242.5zM252 315q0 -89 64 -154t153 -65t154 65t65 154v277q0 89 -65 153t-154 64q-91 0 -154 -63t-63 -154v-277z" />
<glyph unicode="&#xf1;" horiz-adv-x="1003" d="M145 20v865q0 20 21 20h76q20 0 20 -20v-82q0 -10 5.5 -16.5t13.5 -6.5q10 0 18 11q49 61 103 87.5t100 26.5q162 0 260 -92.5t98 -241.5v-551q0 -20 -20 -20h-99q-20 0 -20 20v551q0 89 -65 153t-154 64q-91 0 -154 -63t-63 -154v-551q0 -20 -21 -20h-98q-21 0 -21 20z M203 1122q0 9 28 49q59 82 136 82q59 0 120 -47l43 -32q40 -31 91 -31q55 0 110 55q8 8 14 8q7 0 13 -6l18 -14q10 -7 10 -17q0 -5 -36 -57q-61 -76 -129 -76q-45 0 -127 54l-41 26q-50 31 -86 31q-54 0 -107 -53q-7 -7 -14 -7q-8 0 -13 5l-20 14q-10 7 -10 16z" />
<glyph unicode="&#xf2;" horiz-adv-x="937" d="M115 315v277q0 150 96 242t258 92t260 -92t98 -242v-277q0 -150 -98 -242.5t-260 -92.5t-258 92.5t-96 242.5zM201 1253q0 19 22 19h135q15 0 23 -12l141 -209q6 -9 6 -17q0 -16 -22 -16h-41q-13 0 -23 10l-233 209q-8 8 -8 16zM252 315q0 -89 64 -154t153 -65t154 65 t65 154v277q0 89 -65 153t-154 64q-91 0 -154 -63t-63 -154v-277z" />
<glyph unicode="&#xf3;" horiz-adv-x="937" d="M115 315v277q0 150 96 242t258 92t260 -92t98 -242v-277q0 -150 -98 -242.5t-260 -92.5t-258 92.5t-96 242.5zM252 315q0 -89 64 -154t153 -65t154 65t65 154v277q0 89 -65 153t-154 64q-91 0 -154 -63t-63 -154v-277zM408 1034q0 8 6 17l141 209q8 12 23 12h135 q22 0 22 -19q0 -8 -8 -16l-233 -209q-10 -10 -23 -10h-41q-22 0 -22 16z" />
<glyph unicode="&#xf4;" horiz-adv-x="937" d="M115 315v277q0 150 96 242t258 92t260 -92t98 -242v-277q0 -150 -98 -242.5t-260 -92.5t-258 92.5t-96 242.5zM248 1034q0 8 6 17l164 215q8 8 16 8h64q8 0 16 -8l166 -215q6 -9 6 -17q0 -16 -22 -16h-72q-9 0 -17 8l-90 127q-7 10 -16 10q-6 0 -16 -10l-97 -127 q-8 -8 -16 -8h-70q-22 0 -22 16zM252 315q0 -89 64 -154t153 -65t154 65t65 154v277q0 89 -65 153t-154 64q-91 0 -154 -63t-63 -154v-277z" />
<glyph unicode="&#xf5;" horiz-adv-x="937" d="M115 315v277q0 150 96 242t258 92t260 -92t98 -242v-277q0 -150 -98 -242.5t-260 -92.5t-258 92.5t-96 242.5zM172 1122q0 8 29 49q59 82 135 82q60 0 121 -47l43 -32q40 -31 90 -31q55 0 110 55q8 8 15 8q6 0 12 -6l18 -14q11 -7 11 -17q0 -4 -37 -57q-61 -76 -129 -76 q-45 0 -127 54l-41 26q-50 31 -86 31q-54 0 -107 -53q-7 -7 -14 -7t-12 5l-21 14q-10 7 -10 16zM252 315q0 -89 64 -154t153 -65t154 65t65 154v277q0 89 -65 153t-154 64q-91 0 -154 -63t-63 -154v-277z" />
<glyph unicode="&#xf6;" horiz-adv-x="937" d="M115 315v277q0 150 96 242t258 92t260 -92t98 -242v-277q0 -150 -98 -242.5t-260 -92.5t-258 92.5t-96 242.5zM211 1145q0 38 26 63t64 25t64 -25t26 -63t-26 -65t-64 -27t-64 27t-26 65zM252 315q0 -89 64 -154t153 -65t154 65t65 154v277q0 89 -65 153t-154 64 q-91 0 -154 -63t-63 -154v-277zM545 1145q0 38 25 63t63 25q39 0 65.5 -25t26.5 -63q0 -37 -27.5 -64.5t-64.5 -27.5q-38 0 -63 26.5t-25 65.5z" />
<glyph unicode="&#xf7;" d="M92 457v55q0 20 21 20h821q20 0 20 -20v-55q0 -21 -20 -21h-821q-21 0 -21 21zM424 156q0 40 29 70t69 30q43 0 73 -29t30 -71q0 -41 -31 -72t-72 -31q-39 0 -68.5 31.5t-29.5 71.5zM424 815q0 40 29 70t69 30q43 0 73 -29t30 -71q0 -41 -31 -71.5t-72 -30.5 q-39 0 -68.5 31t-29.5 71z" />
<glyph unicode="&#xf8;" horiz-adv-x="937" d="M115 315v277q0 150 96 242t258 92t260 -92t98 -242v-277q0 -150 -98 -242.5t-260 -92.5t-258 92.5t-96 242.5zM252 315q0 -44 20 -90q6 -14 19 -14q12 0 18 14l223 518q2 6 6 15t6.5 14.5t2.5 9.5q0 16 -17 19q-33 8 -61 8q-91 0 -154 -63t-63 -154v-277zM375 133 q0 -11 14 -18q42 -19 80 -19q89 0 154 65t65 154v277q0 57 -35 117q-7 14 -18 14q-13 0 -19 -16l-227 -537q-14 -28 -14 -37z" />
<glyph unicode="&#xf9;" horiz-adv-x="980" d="M125 336v549q0 20 20 20h97q20 0 20 -20v-549q0 -89 64 -154t153 -65q92 0 156.5 63.5t64.5 155.5v549q0 20 21 20h96q21 0 21 -20v-865q0 -20 -21 -20h-76q-20 0 -20 20v89q0 22 -19 22q-10 0 -18 -10q-95 -121 -205 -121q-161 0 -257.5 93.5t-96.5 242.5zM215 1253 q0 8 6.5 13.5t16.5 5.5h135q14 0 22 -12l142 -209q6 -9 6 -17q0 -16 -23 -16h-41q-12 0 -22 10l-234 209q-8 8 -8 16z" />
<glyph unicode="&#xfa;" horiz-adv-x="980" d="M125 336v549q0 20 20 20h97q20 0 20 -20v-549q0 -89 64 -154t153 -65q92 0 156.5 63.5t64.5 155.5v549q0 20 21 20h96q21 0 21 -20v-865q0 -20 -21 -20h-76q-20 0 -20 20v89q0 22 -19 22q-10 0 -18 -10q-95 -121 -205 -121q-161 0 -257.5 93.5t-96.5 242.5zM422 1034 q0 8 6 17l141 209q8 12 23 12h135q10 0 16.5 -5.5t6.5 -13.5q0 -7 -9 -16l-233 -209q-10 -10 -23 -10h-41q-22 0 -22 16z" />
<glyph unicode="&#xfb;" horiz-adv-x="980" d="M125 336v549q0 20 20 20h97q20 0 20 -20v-549q0 -89 64 -154t153 -65q92 0 156.5 63.5t64.5 155.5v549q0 20 21 20h96q21 0 21 -20v-865q0 -20 -21 -20h-76q-20 0 -20 20v89q0 22 -19 22q-10 0 -18 -10q-95 -121 -205 -121q-161 0 -257.5 93.5t-96.5 242.5zM262 1034 q0 8 6 17l164 215q8 8 17 8h63q8 0 16 -8l166 -215q6 -9 6 -17q0 -16 -22 -16h-72q-8 0 -16 8l-90 127q-7 10 -17 10q-6 0 -16 -10l-96 -127q-8 -8 -17 -8h-69q-23 0 -23 16z" />
<glyph unicode="&#xfc;" horiz-adv-x="980" d="M125 336v549q0 20 20 20h97q20 0 20 -20v-549q0 -89 64 -154t153 -65q92 0 156.5 63.5t64.5 155.5v549q0 20 21 20h96q21 0 21 -20v-865q0 -20 -21 -20h-76q-20 0 -20 20v89q0 22 -19 22q-10 0 -18 -10q-95 -121 -205 -121q-161 0 -257.5 93.5t-96.5 242.5zM225 1145 q0 38 26 63t64 25q39 0 65 -25t26 -63t-26.5 -65t-64.5 -27t-64 27t-26 65zM559 1145q0 38 25 63t63 25q39 0 65.5 -25t26.5 -63q0 -37 -27.5 -64.5t-64.5 -27.5q-38 0 -63 26.5t-25 65.5z" />
<glyph unicode="&#xfd;" horiz-adv-x="980" d="M125 336v549q0 20 20 20h97q20 0 20 -20v-549q0 -89 64 -154t153 -65q104 0 162.5 70t58.5 149v549q0 20 21 20h96q21 0 21 -20v-1008q0 -161 -93 -259.5t-266 -98.5q-176 0 -270 108q-47 60 -47 70q0 11 14 18l74 37q16 8 20 8q10 0 17 -10q35 -53 87 -84t105 -31 q92 0 156.5 64t64.5 156v243q0 23 -18 23q-10 0 -18 -10q-41 -55 -92.5 -83t-92.5 -28q-161 0 -257.5 93.5t-96.5 242.5zM422 1034q0 8 6 17l141 209q8 12 23 12h135q10 0 16.5 -5.5t6.5 -13.5q0 -7 -9 -16l-233 -209q-10 -10 -23 -10h-41q-22 0 -22 16z" />
<glyph unicode="&#xfe;" horiz-adv-x="970" d="M145 -440v1708q0 20 21 20h76q20 0 20 -20v-465q0 -10 5.5 -16.5t13.5 -6.5q10 0 18 11q49 61 103 87.5t100 26.5q162 0 260 -92.5t98 -241.5v-235q0 -146 -97.5 -241t-240.5 -95q-43 0 -98 28.5t-105 88.5q-10 10 -18 10q-16 0 -16 -25v-542q0 -21 -21 -21h-98 q-21 0 -21 21zM285 336q0 -89 64 -154t153 -65t154 65t65 154v235q0 89 -65 153t-154 64q-91 0 -154 -63t-63 -154v-235z" />
<glyph unicode="&#xff;" horiz-adv-x="980" d="M125 336v549q0 20 20 20h97q20 0 20 -20v-549q0 -89 64 -154t153 -65q104 0 162.5 70t58.5 149v549q0 20 21 20h96q21 0 21 -20v-1008q0 -161 -93 -259.5t-266 -98.5q-176 0 -270 108q-47 60 -47 70q0 11 14 18l74 37q16 8 20 8q10 0 17 -10q35 -53 87 -84t105 -31 q92 0 156.5 64t64.5 156v243q0 23 -18 23q-10 0 -18 -10q-41 -55 -92.5 -83t-92.5 -28q-161 0 -257.5 93.5t-96.5 242.5zM225 1145q0 38 26 63t64 25q39 0 65 -25t26 -63t-26.5 -65t-64.5 -27t-64 27t-26 65zM559 1145q0 38 25 63t63 25q39 0 65.5 -25t26.5 -63 q0 -37 -27.5 -64.5t-64.5 -27.5q-38 0 -63 26.5t-25 65.5z" />
<glyph unicode="&#x152;" horiz-adv-x="1587" d="M135 315v660q0 150 97.5 243t259.5 93h63q62 0 137 -23h774q21 0 21 -20v-76q0 -21 -21 -21h-577q-21 0 -21 -16q0 -5 11 -33q34 -74 34 -147v-242q0 -20 21 -20h438q21 0 21 -21v-76q0 -20 -21 -20h-438q-21 0 -21 -21v-260q0 -62 -24 -125q-21 -49 -21 -57 q0 -16 21 -16h577q21 0 21 -21v-76q0 -20 -21 -20h-780q-62 -20 -131 -20h-63q-162 0 -259.5 92.5t-97.5 242.5zM274 315q0 -90 63.5 -154.5t154.5 -64.5h63q89 0 154 65t65 154v660q0 91 -64.5 154t-154.5 63h-63q-92 0 -155 -62.5t-63 -154.5v-660z" />
<glyph unicode="&#x153;" horiz-adv-x="1513" d="M115 315v277q0 150 96 242t258 92q168 0 283 -109q12 -8 16 -8q8 0 14 6q114 111 262 111q104 0 188 -51t127.5 -127t43.5 -156v-125q0 -21 -21 -21h-534q-21 0 -21 -20v-111q0 -29 -2 -43q31 -71 87.5 -123.5t131.5 -52.5q53 0 105.5 31.5t89.5 85.5q5 8 14 8q3 0 23 -8 l74 -37q14 -7 14 -18q0 -16 -45 -68q-92 -110 -275 -110q-161 0 -272 108q-12 8 -14 8q-3 0 -15 -8q-111 -108 -274 -108q-162 0 -258 92.5t-96 242.5zM252 315q0 -89 64 -154t153 -65t154 65t65 154v277q0 89 -65 153t-154 64q-91 0 -154 -63t-63 -154v-277zM825 635 q2 -10 2 -43v-29q0 -20 21 -20h395q21 0 21 20v29q0 89 -65 153t-155 64q-82 0 -137 -52t-82 -122z" />
<glyph unicode="&#x178;" horiz-adv-x="917" d="M33 1272q0 16 22 16h117q10 0 18 -12l252 -516q7 -17 19 -17q11 0 18 17l248 516q8 12 18 12h117q23 0 23 -16q0 -3 -4 -15l-353 -661v-576q0 -20 -20 -20h-100q-21 0 -21 20v576l-350 661q-4 12 -4 15zM221 1511q0 34 22.5 59t57.5 25q37 0 61.5 -24.5t24.5 -59.5 q0 -34 -25.5 -61t-60.5 -27q-37 0 -58.5 25.5t-21.5 62.5zM530 1511q0 33 23.5 58.5t56.5 25.5q37 0 61.5 -24.5t24.5 -59.5q0 -34 -25.5 -61t-60.5 -27q-37 0 -58.5 25.5t-21.5 62.5z" />
<glyph unicode="&#x2c6;" horiz-adv-x="1024" d="M295 1034q0 8 6 17l164 215q8 8 16 8h64q8 0 16 -8l166 -215q6 -9 6 -17q0 -16 -22 -16h-72q-8 0 -16 8l-91 127q-7 10 -16 10q-6 0 -16 -10l-97 -127q-8 -8 -16 -8h-70q-22 0 -22 16z" />
<glyph unicode="&#x2dc;" horiz-adv-x="1024" d="M221 1122q0 8 29 49q59 82 135 82q60 0 121 -47l43 -32q40 -31 90 -31q56 0 111 55q8 8 14 8t12 -6l19 -14q10 -7 10 -17q0 -4 -37 -57q-61 -76 -129 -76q-45 0 -127 54l-41 26q-50 31 -86 31q-53 0 -106 -53q-7 -7 -15 -7q-7 0 -12 5l-21 14q-10 7 -10 16z" />
<glyph unicode="&#x2000;" horiz-adv-x="808" />
<glyph unicode="&#x2001;" horiz-adv-x="1616" />
<glyph unicode="&#x2002;" horiz-adv-x="808" />
<glyph unicode="&#x2003;" horiz-adv-x="1616" />
<glyph unicode="&#x2004;" horiz-adv-x="538" />
<glyph unicode="&#x2005;" horiz-adv-x="404" />
<glyph unicode="&#x2006;" horiz-adv-x="269" />
<glyph unicode="&#x2007;" horiz-adv-x="269" />
<glyph unicode="&#x2008;" horiz-adv-x="202" />
<glyph unicode="&#x2009;" horiz-adv-x="323" />
<glyph unicode="&#x200a;" horiz-adv-x="89" />
<glyph unicode="&#x2010;" horiz-adv-x="534" d="M102 403v99q0 20 21 20h291q20 0 20 -20v-99q0 -20 -20 -20h-291q-21 0 -21 20z" />
<glyph unicode="&#x2011;" horiz-adv-x="534" d="M102 403v99q0 20 21 20h291q20 0 20 -20v-99q0 -20 -20 -20h-291q-21 0 -21 20z" />
<glyph unicode="&#x2012;" horiz-adv-x="534" d="M102 403v99q0 20 21 20h291q20 0 20 -20v-99q0 -20 -20 -20h-291q-21 0 -21 20z" />
<glyph unicode="&#x2013;" horiz-adv-x="1173" d="M102 457v55q0 20 21 20h928q20 0 20 -20v-55q0 -21 -20 -21h-928q-21 0 -21 21z" />
<glyph unicode="&#x2014;" horiz-adv-x="1748" d="M102 457v55q0 20 21 20h1503q21 0 21 -20v-55q0 -21 -21 -21h-1503q-21 0 -21 21z" />
<glyph unicode="&#x2018;" horiz-adv-x="335" d="M82 961v108q0 181 90 268q16 16 38 30.5t28 14.5q10 0 16 -12l12 -27q4 -8 4 -14q0 -9 -8 -14q-76 -60 -76 -203q0 -20 21 -20h24q21 0 21 -21v-110q0 -21 -21 -21h-129q-20 0 -20 21z" />
<glyph unicode="&#x2019;" horiz-adv-x="335" d="M68 909q0 10 8 15q38 30 57 76.5t19 125.5q0 21 -21 21h-25q-20 0 -20 20v111q0 20 20 20h130q20 0 20 -20v-109q0 -181 -90 -268q-16 -16 -38 -30.5t-28 -14.5q-10 0 -16 12l-12 27q-4 8 -4 14z" />
<glyph unicode="&#x201a;" horiz-adv-x="335" d="M68 -199q0 10 8 15q38 30 57 76.5t19 125.5q0 21 -21 21h-25q-20 0 -20 20v111q0 20 20 20h130q20 0 20 -20v-109q0 -181 -90 -268q-16 -16 -38 -30.5t-28 -14.5q-10 0 -16 12l-12 27q-4 8 -4 14z" />
<glyph unicode="&#x201c;" horiz-adv-x="600" d="M82 961v108q0 181 90 268q16 16 38 30.5t28 14.5q10 0 16 -12l12 -27q4 -8 4 -14q0 -9 -8 -14q-76 -60 -76 -203q0 -20 21 -20h24q21 0 21 -21v-110q0 -21 -21 -21h-129q-20 0 -20 21zM346 961v108q0 181 90 268q16 16 38 30.5t28 14.5q10 0 16 -12l12 -27q5 -10 5 -14 q0 -8 -9 -14q-75 -59 -75 -203q0 -20 20 -20h25q20 0 20 -21v-110q0 -21 -20 -21h-129q-21 0 -21 21z" />
<glyph unicode="&#x201d;" horiz-adv-x="600" d="M68 909q0 10 8 15q38 30 57 76.5t19 125.5q0 21 -21 21h-25q-20 0 -20 20v111q0 20 20 20h130q20 0 20 -20v-109q0 -181 -90 -268q-16 -16 -38 -30.5t-28 -14.5q-10 0 -16 12l-12 27q-4 8 -4 14zM332 909q0 10 8 15q38 30 57 76.5t19 125.5q0 21 -21 21h-24q-21 0 -21 20 v111q0 20 21 20h129q20 0 20 -20v-109q0 -181 -90 -268q-16 -16 -37.5 -30.5t-27.5 -14.5q-11 0 -17 12l-12 27q-4 8 -4 14z" />
<glyph unicode="&#x201e;" horiz-adv-x="600" d="M68 -199q0 10 8 15q38 30 57 76.5t19 125.5q0 21 -21 21h-25q-20 0 -20 20v111q0 20 20 20h130q20 0 20 -20v-109q0 -181 -90 -268q-16 -16 -38 -30.5t-28 -14.5q-10 0 -16 12l-12 27q-4 8 -4 14zM332 -199q0 10 8 15q38 30 57 76.5t19 125.5q0 21 -21 21h-24 q-21 0 -21 20v111q0 20 21 20h129q20 0 20 -20v-109q0 -181 -90 -268q-16 -16 -37.5 -30.5t-27.5 -14.5q-11 0 -17 12l-12 27q-4 8 -4 14z" />
<glyph unicode="&#x2022;" horiz-adv-x="1024" d="M215 625v43q0 122 80 196t213 74h8q132 0 212.5 -74t80.5 -196v-43q0 -122 -80.5 -197.5t-212.5 -75.5h-8q-133 0 -213 75.5t-80 197.5z" />
<glyph unicode="&#x2026;" horiz-adv-x="2048" d="M299 70q0 40 29 70t69 30q43 0 73 -29t30 -71q0 -43 -30 -72t-73 -29q-39 0 -68.5 30.5t-29.5 70.5zM922 70q0 40 29 70t69 30q43 0 72.5 -28.5t29.5 -71.5t-29.5 -72t-72.5 -29q-39 0 -68.5 30.5t-29.5 70.5zM1544 70q0 40 29 70t69 30q43 0 73 -29t30 -71 q0 -43 -30 -72t-73 -29q-39 0 -68.5 30.5t-29.5 70.5z" />
<glyph unicode="&#x202f;" horiz-adv-x="323" />
<glyph unicode="&#x2039;" horiz-adv-x="665" d="M115 512v113q0 8 8 16l387 277q9 6 16 6q17 0 17 -23v-86q0 -8 -8 -16l-297 -213q-11 -11 -11 -17q0 -5 11 -16l297 -215q8 -8 8 -16v-86q0 -23 -17 -23q-7 0 -16 6l-387 277q-8 8 -8 16z" />
<glyph unicode="&#x203a;" horiz-adv-x="665" d="M137 236v86q0 8 8 16l297 215q11 11 11 16q0 6 -11 17l-297 213q-8 8 -8 16v86q0 23 17 23q7 0 16 -6l391 -277q8 -8 8 -16v-113q0 -8 -8 -16l-391 -277q-9 -6 -16 -6q-17 0 -17 23z" />
<glyph unicode="&#x205f;" horiz-adv-x="404" />
<glyph unicode="&#x20ac;" d="M53 438v74q0 20 21 20h127q20 0 20 21v184q0 21 -20 21h-127q-21 0 -21 20v76q0 20 21 20h127q20 0 20 21v80q0 150 97.5 243t259.5 93h63q144 0 236 -72q47 -39 79 -94q12 -18 -10 -29l-86 -43q-15 -6 -24 6q-38 52 -91 82.5t-104 30.5h-63q-92 0 -155 -62.5t-63 -154.5 v-80q0 -9 6 -15t15 -6h324q20 0 20 -20v-76q0 -20 -20 -20h-324q-9 0 -15 -6t-6 -15v-184q0 -9 6 -15t15 -6h324q20 0 20 -20v-74q0 -20 -20 -20h-324q-9 0 -15 -6t-6 -15v-82q0 -90 63.5 -154.5t154.5 -64.5h63q53 0 105.5 31.5t89.5 85.5q8 13 24 6l86 -43q22 -11 10 -29 q-34 -56 -73 -90q-90 -77 -242 -77h-63q-162 0 -259.5 92.5t-97.5 242.5v82q0 21 -20 21h-127q-21 0 -21 20z" />
<glyph unicode="&#x2122;" horiz-adv-x="794" d="M41 1079v23q0 20 20 20h218q20 0 20 -20v-23q0 -20 -20 -20h-56q-20 0 -20 -21v-280q0 -21 -21 -21h-24q-21 0 -21 21v280q0 21 -20 21h-56q-20 0 -20 20zM377 758v344q0 20 20 20h25q11 0 18 -10l97 -166q11 -14 18 -14t18 14l97 166q7 10 18 10h25q20 0 20 -20v-344 q0 -21 -20 -21h-25q-20 0 -20 21v147q0 25 -19 25q-9 0 -20 -15l-51 -84q-7 -10 -19 -10h-8q-9 0 -16 10l-56 84q-11 15 -20 15q-7 0 -12 -7t-5 -18v-147q0 -21 -20 -21h-25q-20 0 -20 21z" />
<glyph unicode="&#x25fc;" horiz-adv-x="901" d="M0 0v901h901v-901h-901z" />
</font>
</defs>
</svg>
